<svg xmlns="http://www.w3.org/2000/svg" style="isolation:isolate" width="16" height="16" viewBox="0 0 16 16">
 <defs>
  <style id="current-color-scheme" type="text/css">
   .ColorScheme-Text { color:#5c616c; } .ColorScheme-Highlight { color:#5294e2; }
  </style>
  <linearGradient id="oomox" x1="0%" x2="0%" y1="0%" y2="100%">
   <stop offset="0%" style="stop-color:#f99f5e; stop-opacity:1"/>
   <stop offset="100%" style="stop-color:#f95e6b; stop-opacity:1"/>
  </linearGradient>
  <clipPath id="_clipPath_XunAuODah5CVOB0e0uBbten8SweWW0E3">
   <rect width="16" height="16"/>
  </clipPath>
 </defs>
 <g clip-path="url(#_clipPath_XunAuODah5CVOB0e0uBbten8SweWW0E3)">
  <rect style="fill:url(#oomox)" class="ColorScheme-Text" width="4.625" height="3.594" x="18.19" y="-.16" transform="matrix(1,0,0,1,0,0)"/>
  <path style="fill:url(#oomox)" class="ColorScheme-Text" d="M 2.75 15 L 2.75 1 L 6.833 1 L 6.833 6.18 C 6.9 6.883 7.649 6.57 7.702 6.246 L 8.583 1 L 13.106 1 L 11.503 7.44 L 9.752 7.859 L 11.646 8.28 L 13.25 15 L 8.583 15 L 7.702 9.328 C 7.653 8.889 6.847 8.885 6.833 9.4 C 6.82 9.914 6.833 15 6.833 15"/>
 </g>
</svg>
