<svg xmlns="http://www.w3.org/2000/svg" style="isolation:isolate" width="16" height="16" viewBox="0 0 16 16">
 <defs>
  <style id="current-color-scheme" type="text/css">
   .ColorScheme-Text { color:#5c616c; } .ColorScheme-Highlight { color:#5294e2; }
  </style>
  <linearGradient id="grad1" x1="0%" x2="0%" y1="0%" y2="100%">
   <stop offset="0%" style="stop-color:#f99f5e; stop-opacity:1"/>
   <stop offset="100%" style="stop-color:#f95e6b; stop-opacity:1"/>
  </linearGradient>
  <clipPath id="_clipPath_TTYEQVCqQfunj0Kk7LzmyIJZn2yYcDGG">
   <rect width="16" height="16"/>
  </clipPath>
 </defs>
 <g clip-path="url(#_clipPath_TTYEQVCqQfunj0Kk7LzmyIJZn2yYcDGG)">
  <rect style="fill:url(#grad1)" class="ColorScheme-Text" width="4.625" height="3.594" x="18.19" y="-.16" transform="matrix(1,0,0,1,0,0)"/>
  <path style="fill:url(#grad1)" class="ColorScheme-Text" fill-rule="evenodd" d="M 3.161 12.077 C 1.95 11.99 1 10.985 1 9.75 L 1 2.75 C 1 1.457 2.041 0.417 3.333 0.417 L 5.083 0.417 L 5.083 2.75 L 3.917 2.75 C 3.594 2.75 3.333 3.01 3.333 3.333 L 3.333 9.167 C 3.333 9.49 3.594 9.75 3.917 9.75 L 4.208 9.75 L 6.833 3.917 L 9.167 3.917 L 11.792 9.75 L 12.083 9.75 C 12.406 9.75 12.667 9.49 12.667 9.167 L 12.667 3.333 C 12.667 3.01 12.406 2.75 12.083 2.75 L 10.917 2.75 L 10.917 0.417 L 12.667 0.417 C 13.959 0.417 15 1.457 15 2.75 L 15 9.75 C 15 10.985 14.051 11.99 12.839 12.077 L 14.417 15.583 L 11.792 15.583 L 10.305 12.083 L 5.695 12.083 L 4.208 15.583 L 1.583 15.583 L 3.161 12.077 Z M 9.313 9.75 L 6.687 9.75 L 8 6.658 L 9.313 9.75 Z"/>
 </g>
</svg>
