<svg xmlns="http://www.w3.org/2000/svg" style="isolation:isolate" width="16" height="16" viewBox="0 0 16 16">
 <defs>
  <style id="current-color-scheme" type="text/css">
   .ColorScheme-Text { color:#5c616c; } .ColorScheme-Highlight { color:#5294e2; }
  </style>
  <linearGradient id="oomox" x1="0%" x2="0%" y1="0%" y2="100%">
   <stop offset="0%" style="stop-color:#f99f5e; stop-opacity:1"/>
   <stop offset="100%" style="stop-color:#f95e6b; stop-opacity:1"/>
  </linearGradient>
  <clipPath id="_clipPath_SXCrOS8XNbWuPIbhxY0J2nH4LYKOqIgz">
   <rect width="16" height="16"/>
  </clipPath>
 </defs>
 <g clip-path="url(#_clipPath_SXCrOS8XNbWuPIbhxY0J2nH4LYKOqIgz)">
  <rect style="fill:url(#oomox)" class="ColorScheme-Text" width="4.625" height="3.594" x="18.19" y="-.16" transform="matrix(1,0,0,1,0,0)"/>
  <path style="fill:url(#oomox)" class="ColorScheme-Text" d="M 14.222 0 L 1.778 0 C 0.796 0 0 0.796 0 1.778 L 0 14.222 C 0 15.204 0.796 16 1.778 16 L 14.222 16 C 15.204 16 16 15.204 16 14.222 L 16 1.778 C 16 0.796 15.204 0 14.222 0 Z M 8.618 11.723 L 4.4 11.723 L 4.4 4.138 L 5.932 4.138 L 5.932 10.451 L 8.619 10.451 L 8.618 11.723 Z M 12.212 7.507 C 12.049 7.489 11.886 7.475 11.723 7.465 C 11.156 7.465 10.976 7.823 10.907 7.996 L 10.907 11.722 L 9.427 11.722 L 9.427 6.086 L 10.816 6.086 L 10.858 6.694 C 10.969 6.468 11.267 5.983 11.823 5.983 C 12.066 5.983 12.177 6.028 12.229 6.049 L 12.212 7.507 Z"/>
 </g>
</svg>
