<svg xmlns="http://www.w3.org/2000/svg" style="isolation:isolate" width="16" height="16" viewBox="0 0 16 16">
 <defs>
  <style id="current-color-scheme" type="text/css">
   .ColorScheme-Text { color:#5c616c; } .ColorScheme-Highlight { color:#5294e2; }
  </style>
  <linearGradient id="grad1" x1="0%" x2="0%" y1="0%" y2="100%">
   <stop offset="0%" style="stop-color:#f99f5e; stop-opacity:1"/>
   <stop offset="100%" style="stop-color:#f95e6b; stop-opacity:1"/>
  </linearGradient>
  <clipPath id="_clipPath_c6v57fkGAqpteX05RIE9p1DigqhdTsHj">
   <rect width="16" height="16"/>
  </clipPath>
 </defs>
 <g clip-path="url(#_clipPath_c6v57fkGAqpteX05RIE9p1DigqhdTsHj)">
  <path style="fill:url(#grad1)" class="ColorScheme-Text" d="M 6.532 3.694 C 4.636 3.692 3.25 5.146 2.364 6.84 C 1.21 9.047 -0.008 12.308 2.342 12.308 C 4.816 12.308 6.872 10.935 8.325 9.897 C 8.852 10.859 9.62 12.308 10.692 12.308 C 11.764 12.308 12.741 11.886 13.219 11.51 L 15 9.03 L 14.807 8.808 C 12.553 9.925 11.784 10.693 10.517 8.282 L 12.116 6.812 L 14.464 3.906 L 14.291 3.692 L 10.067 7.391 C 9.383 5.975 7.978 3.696 6.53 3.694 M 4.949 5.523 C 6.291 5.523 7.079 7.501 7.869 8.966 C 6.704 9.628 5.182 10.445 4.067 10.217 C 2.745 9.946 2.408 8.563 2.941 7.524 C 3.413 6.551 3.992 5.524 4.947 5.524"/>
  <rect style="fill:url(#grad1)" class="ColorScheme-Text" width="4.625" height="3.594" x="17.63" y="-.28" transform="matrix(1,0,0,1,0,0)"/>
 </g>
</svg>
