<svg xmlns="http://www.w3.org/2000/svg" style="isolation:isolate" width="16" height="16" viewBox="0 0 16 16">
 <defs>
  <style id="current-color-scheme" type="text/css">
   .ColorScheme-Text { color:#5c616c; } .ColorScheme-Highlight { color:#5294e2; }
  </style>
  <linearGradient id="oomox" x1="0%" x2="0%" y1="0%" y2="100%">
   <stop offset="0%" style="stop-color:#f99f5e; stop-opacity:1"/>
   <stop offset="100%" style="stop-color:#f95e6b; stop-opacity:1"/>
  </linearGradient>
  <clipPath id="_clipPath_WEV8t7igRbtM8Fy013fXhnOfgJ9f48pr">
   <rect width="16" height="16"/>
  </clipPath>
 </defs>
 <g clip-path="url(#_clipPath_WEV8t7igRbtM8Fy013fXhnOfgJ9f48pr)">
  <rect style="fill:url(#oomox)" class="ColorScheme-Text" width="4.625" height="3.594" x="17.63" y="-.28" transform="matrix(1,0,0,1,0,0)"/>
  <path style="fill:url(#oomox)" class="ColorScheme-Text" fill-rule="evenodd" d="M 1 1 L 1 3.546 C 7.325 3.546 12.454 8.675 12.454 15 L 15 15 C 15 7.271 8.729 1 1 1 Z M 1 6.093 L 1 8.639 C 4.509 8.639 7.361 11.491 7.361 15 L 9.907 15 C 9.907 10.078 5.922 6.093 1 6.093 Z M 1 13.039 C 1 11.956 1.879 11.077 2.961 11.077 C 4.044 11.077 4.923 11.956 4.923 13.039 C 4.923 14.121 4.044 15 2.961 15 C 1.879 15 1 14.121 1 13.039 Z"/>
 </g>
</svg>
