<svg xmlns="http://www.w3.org/2000/svg" style="isolation:isolate" width="16" height="16" viewBox="0 0 16 16">
 <defs>
  <style id="current-color-scheme" type="text/css">
   .ColorScheme-Text { color:#5c616c; } .ColorScheme-Highlight { color:#5294e2; }
  </style>
  <linearGradient id="oomox" x1="0%" x2="0%" y1="0%" y2="100%">
   <stop offset="0%" style="stop-color:#f99f5e"/>
   <stop offset="100%" style="stop-color:#f95e6b"/>
  </linearGradient>
 </defs>
 <path style="fill:url(#oomox)" class="ColorScheme-Text" fill-rule="evenodd" d="M 10.465 0.533 C 15.308 0.533 16 1.224 16 6.062 L 16 9.937 C 16 14.776 15.308 15.467 10.465 15.467 L 5.535 15.467 C 0.692 15.467 0 14.776 0 9.937 L 0 6.062 C 0 1.224 0.692 0.533 5.535 0.533 L 10.465 0.533 Z M 8.476 1.943 C 8.279 1.943 8.102 2.061 8.027 2.243 C 7.951 2.425 7.993 2.634 8.132 2.773 L 13.321 7.962 C 13.46 8.101 13.669 8.143 13.851 8.067 C 14.033 7.992 14.151 7.815 14.151 7.618 L 14.151 2.429 C 14.151 2.16 13.934 1.943 13.665 1.943 L 8.476 1.943 Z"/>
</svg>
