<svg xmlns="http://www.w3.org/2000/svg" style="isolation:isolate" width="16" height="16" viewBox="0 0 16 16">
 <defs>
  <style id="current-color-scheme" type="text/css">
   .ColorScheme-Text { color:#5c616c; } .ColorScheme-Highlight { color:#5294e2; }
  </style>
  <linearGradient id="grad1" x1="0%" x2="0%" y1="0%" y2="100%">
   <stop offset="0%" style="stop-color:#f99f5e; stop-opacity:1"/>
   <stop offset="100%" style="stop-color:#f95e6b; stop-opacity:1"/>
  </linearGradient>
  <clipPath id="_clipPath_28IMoYsYPoIVAhUGFsarndotRysX0W9N">
   <rect width="16" height="16"/>
  </clipPath>
 </defs>
 <g clip-path="url(#_clipPath_28IMoYsYPoIVAhUGFsarndotRysX0W9N)">
  <rect style="fill:url(#grad1)" class="ColorScheme-Text" width="4.625" height="3.594" x="17.09" y="-.09" transform="matrix(1,0,0,1,0,0)"/>
  <path style="fill:url(#grad1)" class="ColorScheme-Text" fill-rule="evenodd" d="M 0 4.308 L 0 11.692 L 0.615 11.692 L 0.615 8.615 L 1.846 8.615 L 1.846 11.692 L 2.462 11.692 L 2.462 4.308 L 0 4.308 Z M 3.692 4.308 L 3.692 8 L 5.538 8 L 5.538 11.077 L 3.692 11.077 L 3.692 11.692 L 6.154 11.692 L 6.154 7.385 L 4.308 7.385 L 4.308 4.923 L 6.154 4.923 L 6.154 4.308 L 3.692 4.308 Z M 7.385 4.308 L 7.385 11.692 L 9.846 11.692 L 9.846 11.077 L 8 11.077 L 8 4.923 L 9.846 4.923 L 9.846 4.308 L 7.385 4.308 Z M 11.077 4.308 L 11.077 4.923 L 11.692 4.923 L 11.692 11.077 L 11.077 11.077 L 11.077 11.692 L 12.923 11.692 L 12.923 11.077 L 12.308 11.077 L 12.308 4.923 L 12.923 4.923 L 12.923 4.308 L 11.077 4.308 Z M 14.154 4.308 L 14.154 4.923 L 14.769 4.923 L 14.769 11.077 L 14.154 11.077 L 14.154 11.692 L 16 11.692 L 16 11.077 L 15.385 11.077 L 15.385 4.923 L 16 4.923 L 16 4.308 L 14.154 4.308 Z M 0.615 4.923 L 1.846 4.923 L 1.846 8 L 0.615 8 L 0.615 4.923 Z"/>
 </g>
</svg>
