<svg xmlns="http://www.w3.org/2000/svg" style="isolation:isolate" width="16" height="16" viewBox="0 0 16 16">
 <defs>
  <style id="current-color-scheme" type="text/css">
   .ColorScheme-Text { color:#5c616c; } .ColorScheme-Highlight { color:#5294e2; }
  </style>
  <linearGradient id="grad1" x1="0%" x2="0%" y1="0%" y2="100%">
   <stop offset="0%" style="stop-color:#f99f5e; stop-opacity:1"/>
   <stop offset="100%" style="stop-color:#f95e6b; stop-opacity:1"/>
  </linearGradient>
  <clipPath id="_clipPath_ua1vkTSYeRSxTVIbZqXBc7BWHNRwgekV">
   <rect width="16" height="16"/>
  </clipPath>
 </defs>
 <g clip-path="url(#_clipPath_ua1vkTSYeRSxTVIbZqXBc7BWHNRwgekV)">
  <rect style="fill:url(#grad1)" class="ColorScheme-Text" width="4.625" height="3.594" x="17.09" y="-.09" transform="matrix(1,0,0,1,0,0)"/>
  <path style="fill:url(#grad1)" class="ColorScheme-Text" d="M 12.308 4.769 L 12.308 8 C 13.2 8 13.923 7.277 13.923 6.385 C 13.923 5.493 13.2 4.769 12.308 4.769 L 12.308 4.769 Z M 6.923 12.308 L 6.923 12.846 C 6.923 14.192 7.462 14.461 8 15 C 8.538 14.461 9.077 14.192 9.077 12.846 L 9.077 12.308 L 9.615 12.308 L 9.615 10.154 L 11.231 10.154 L 11.231 3.692 L 15 3.692 L 15 2.077 L 11.231 2.077 L 11.231 1 L 4.769 1 L 4.769 1 L 4.769 2.077 L 1 2.077 L 1 3.692 L 4.769 3.692 L 4.769 10.154 L 6.385 10.154 L 6.385 12.308 L 6.923 12.308 Z M 3.692 4.769 C 2.8 4.769 2.077 5.493 2.077 6.385 C 2.077 7.277 2.8 8 3.692 8 L 3.692 4.769 L 3.692 4.769 Z"/>
 </g>
</svg>
