<svg xmlns="http://www.w3.org/2000/svg" width="16" height="16" version="1.1">
<defs>
  <style id="current-color-scheme" type="text/css">
   .ColorScheme-Text { color:#5c616c; } .ColorScheme-Highlight { color:#5294e2; }
  </style>
  <linearGradient id="grad1" x1="0%" x2="0%" y1="0%" y2="100%">
   <stop offset="0%" style="stop-color:#f99f5e; stop-opacity:1"/>
   <stop offset="100%" style="stop-color:#f95e6b; stop-opacity:1"/>
  </linearGradient>
 </defs>
 <path d="M 8,0 C 3.576,0 0,3.576 0,8 c 0,4.424 3.576,8 8,8 4.424,0 8,-3.576 8,-8 C 16,3.576 12.424,0 8,0 Z m 0,1 v 7 l 7.023704,0.046325 C 15.075615,8.0466676 15,7.942862 15,8 15,11.87 11.87,15 8,15 4.13,15 1,11.87 1,8 1,4.2126651 3.9977115,1.1340543 7.7530409,1.0042611 7.8350075,1.0014281 8,0.9173349 8,1 Z" overflow="visible" style="fill:url(#grad1)" class="ColorScheme-Text"/>
</svg>
