<svg xmlns="http://www.w3.org/2000/svg" style="isolation:isolate" width="16" height="16" viewBox="0 0 16 16">
 <defs>
  <style id="current-color-scheme" type="text/css">
   .ColorScheme-Text { color:#5c616c; } .ColorScheme-Highlight { color:#5294e2; }
  </style>
  <linearGradient id="oomox" x1="0%" x2="0%" y1="0%" y2="100%">
   <stop offset="0%" style="stop-color:#f99f5e"/>
   <stop offset="100%" style="stop-color:#f95e6b"/>
  </linearGradient>
 </defs>
 <g opacity=".4">
  <path style="fill:url(#oomox)" class="ColorScheme-Text" d="M 4 8 L 0 8 C 0 3.568 3.568 0 8 0 L 8 4 C 5.792 4 4 5.792 4 8 Z"/>
 </g>
 <g opacity=".6">
  <path style="fill:url(#oomox)" class="ColorScheme-Text" d="M 12 8 L 16 8 C 16 3.568 12.432 0 8 0 L 8 4 C 8 4 8 4 8 4 C 10.208 4 12 5.792 12 8 Z"/>
 </g>
 <g opacity=".8">
  <path style="fill:url(#oomox)" class="ColorScheme-Text" d="M 4 8 L 0 8 C 0 12.432 3.568 16 8 16 L 8 12 C 5.792 12 4 10.208 4 8 C 4 8 4 8 4 8 Z"/>
 </g>
 <path style="fill:url(#oomox)" class="ColorScheme-Text" d="M 12 8 L 16 8 C 16 12.432 12.432 16 8 16 L 8 12 C 8 12 8 12 8 12 C 10.208 12 12 10.208 12 8 C 12 8 12 8 12 8 Z"/>
</svg>
