<svg xmlns="http://www.w3.org/2000/svg" style="isolation:isolate" width="16" height="16" viewBox="0 0 16 16">
 <defs>
  <style id="current-color-scheme" type="text/css">
   .ColorScheme-Text { color:#5c616c; } .ColorScheme-Highlight { color:#5294e2; }
  </style>
  <linearGradient id="oomox" x1="0%" x2="0%" y1="0%" y2="100%">
   <stop offset="0%" style="stop-color:#f99f5e"/>
   <stop offset="100%" style="stop-color:#f95e6b"/>
  </linearGradient>
 </defs>
 <path style="fill:url(#oomox)" class="ColorScheme-Text" d="M 16 0 L 0 5.12 L 5.923 7.583 L 8 8 L 8.446 10.13 L 10.88 16 L 16 0 Z M 5.147 9.603 C 5.08 9.609 4.994 9.623 4.915 9.644 C 4.308 9.802 3.426 10.454 2.953 11.095 C 2.417 11.821 2.132 12.672 2.133 13.54 C 2.134 13.782 2.144 13.823 2.216 13.854 C 2.297 13.889 2.983 13.847 3.261 13.791 C 4.064 13.627 4.747 13.251 5.358 12.639 C 5.742 12.254 5.97 11.936 6.193 11.472 C 6.339 11.168 6.437 10.799 6.386 10.748 C 6.376 10.738 6.296 10.785 6.208 10.854 C 5.546 11.279 5.017 11.586 4.267 11.733 C 4.461 10.995 4.669 10.433 5.056 9.903 C 5.168 9.752 5.26 9.622 5.26 9.615 C 5.26 9.6 5.214 9.597 5.147 9.603 Z"/>
</svg>
