<svg xmlns="http://www.w3.org/2000/svg" width="16" height="16" version="1.1">
<defs>
  <style id="current-color-scheme" type="text/css">
   .ColorScheme-Text { color:#5c616c; } .ColorScheme-Highlight { color:#5294e2; }
  </style>
  <linearGradient id="oomox" x1="0%" x2="0%" y1="0%" y2="100%">
   <stop offset="0%" style="stop-color:#f99f5e; stop-opacity:1"/>
   <stop offset="100%" style="stop-color:#f95e6b; stop-opacity:1"/>
  </linearGradient>
 </defs>
 <g transform="translate(-27.00001,111.6378)">
  <path d="m 29.446421,-96.6378 0.226212,-1.340517 6.141243,-5.244773 -3.803717,-6.52666 0.150808,-0.88805 8.839033,0 -0.410533,2.47156 -0.879715,0 c -1e-5,-0.12288 0.03071,-0.32955 0.09216,-0.62 0.06701,-0.27368 0.100528,-0.48035 0.100539,-0.62 -1.1e-5,-0.31276 -0.36586,-0.46915 -1.097549,-0.46915 l -4.566135,0 3.342914,5.84799 -7.05447,6.049083 6.526641,0 c 0.569712,0 0.952317,-0.114486 1.147818,-0.343506 0.201068,-0.245749 0.354669,-0.714942 0.460802,-1.407531 l 0.846202,0 -0.502694,3.091554 -9.55956,0" style="fill:url(#oomox)" class="ColorScheme-Text"/>
 </g>
</svg>
