<svg xmlns="http://www.w3.org/2000/svg" style="isolation:isolate" width="16" height="16" viewBox="0 0 16 16">
 <defs>
  <style id="current-color-scheme" type="text/css">
   .ColorScheme-Text { color:#5c616c; } .ColorScheme-Highlight { color:#5294e2; }
  </style>
  <linearGradient id="oomox" x1="0%" x2="0%" y1="0%" y2="100%">
   <stop offset="0%" style="stop-color:#f99f5e"/>
   <stop offset="100%" style="stop-color:#f95e6b"/>
  </linearGradient>
 </defs>
 <path style="fill:url(#oomox)" class="ColorScheme-Text" d="M 9.473 15.859 C 9.028 15.59 8.743 15.121 7.505 12.619 C 6.821 11.233 6.169 10.002 6.057 9.884 C 5.931 9.751 4.898 9.202 3.356 8.449 C 0.309 6.962 0 6.726 0 5.883 C 0 5.49 0.192 5.114 0.493 4.918 C 0.596 4.85 3.782 3.711 7.572 2.385 C 14.232 0.056 14.48 -0.024 14.935 0.003 C 15.328 0.027 15.442 0.067 15.631 0.248 C 15.915 0.518 16.043 0.893 15.987 1.294 C 15.928 1.725 11.147 15.231 10.969 15.47 C 10.59 15.98 9.946 16.148 9.473 15.86 L 9.473 15.859 Z"/>
</svg>
