<svg xmlns="http://www.w3.org/2000/svg" style="isolation:isolate" width="16" height="16" viewBox="0 0 16 16">
 <defs>
  <style id="current-color-scheme" type="text/css">
   .ColorScheme-Text { color:#5c616c; } .ColorScheme-Highlight { color:#5294e2; }
  </style>
  <linearGradient id="grad1" x1="0%" x2="0%" y1="0%" y2="100%">
   <stop offset="0%" style="stop-color:#f99f5e; stop-opacity:1"/>
   <stop offset="100%" style="stop-color:#f95e6b; stop-opacity:1"/>
  </linearGradient>
  <clipPath id="_clipPath_beEfOdP81yIbB1NOkY88FKhDOIgssriK">
   <rect width="16" height="16"/>
  </clipPath>
 </defs>
 <g clip-path="url(#_clipPath_beEfOdP81yIbB1NOkY88FKhDOIgssriK)">
  <rect style="fill:url(#grad1)" class="ColorScheme-Text" width="4.625" height="3.594" x="17.09" y="-.09" transform="matrix(1,0,0,1,0,0)"/>
  <g>
   <g>
    <path fill="none" stroke="#5c616c" stroke-linecap="square" stroke-miterlimit="3" d="M 1.125 1.531 L 7.125 1.531 L 7.125 7.094 L 1.125 7.094 L 1.125 1.531 Z" vector-effect="non-scaling-stroke"/>
    <rect style="fill:url(#grad1)" class="ColorScheme-Text" width="6.063" height="1.063" x="1.03" y="1.63" transform="matrix(1,0,0,1,0,0)"/>
   </g>
   <g>
    <path fill="none" stroke="#5c616c" stroke-linecap="square" stroke-miterlimit="3" d="M 8.969 3.25 L 14.969 3.25 L 14.969 7.75 L 8.969 7.75 L 8.969 3.25 Z" vector-effect="non-scaling-stroke"/>
    <rect style="fill:url(#grad1)" class="ColorScheme-Text" width="6.063" height=".987" x="8.88" y="3.33" transform="matrix(1,0,0,1,0,0)"/>
   </g>
   <g>
    <path fill="none" stroke="#5c616c" stroke-linecap="square" stroke-miterlimit="3" d="M 2.888 9.344 L 11.687 9.344 L 11.687 14.906 L 2.888 14.906 L 2.888 9.344 Z" vector-effect="non-scaling-stroke"/>
    <rect style="fill:url(#grad1)" class="ColorScheme-Text" width="8.892" height="1.375" x="2.75" y="9.44" transform="matrix(1,0,0,1,0,0)"/>
   </g>
  </g>
 </g>
</svg>
