<svg xmlns="http://www.w3.org/2000/svg" style="isolation:isolate" width="16" height="16" viewBox="0 0 16 16">
 <defs>
  <style id="current-color-scheme" type="text/css">
   .ColorScheme-Text { color:#5c616c; } .ColorScheme-Highlight { color:#5294e2; }
  </style>
  <linearGradient id="grad1" x1="0%" x2="0%" y1="0%" y2="100%">
   <stop offset="0%" style="stop-color:#f99f5e; stop-opacity:1"/>
   <stop offset="100%" style="stop-color:#f95e6b; stop-opacity:1"/>
  </linearGradient>
  <clipPath id="_clipPath_PMV3DzZfv1kk6ArqY5idtEXfEgcU1Op2">
   <rect width="16" height="16"/>
  </clipPath>
 </defs>
 <g clip-path="url(#_clipPath_PMV3DzZfv1kk6ArqY5idtEXfEgcU1Op2)">
  <rect style="fill:#000000" fill-opacity="0" width="16" height="16"/>
  <g opacity=".6">
   <path style="fill:url(#grad1)" class="ColorScheme-Text" d="M 8 0 C 8 0 7.2 0 7.2 0.8 C 7.2 1.6 6.4 1.6 6.4 1.6 C 6.4 1.6 5.6 1.601 5.6 0.8 L 5.6 12 L 10.4 12 L 10.4 0.8 C 10.4 1.6 9.6 1.6 9.6 1.6 C 9.6 1.6 8.8 1.6 8.8 0.8 C 8.8 0 8 0 8 0 Z"/>
  </g>
  <path style="fill:url(#grad1)" class="ColorScheme-Text" d="M 2.4 9.6 L 8 16 L 13.6 9.6 L 10.4 9.601 L 10.4 7.2 C 10.4 8 9.6 8 9.6 8 C 9.6 8 8.8 8 8.8 7.2 C 8.8 6.4 8 6.4 8 6.4 C 8 6.4 7.2 6.4 7.2 7.2 C 7.2 8 6.4 8 6.4 8 C 6.4 8 5.6 8 5.6 7.199 L 5.6 9.6 L 2.4 9.6 Z"/>
 </g>
</svg>
