<svg xmlns="http://www.w3.org/2000/svg" width="16" height="16">
 <defs>
  <style id="current-color-scheme" type="text/css">
   .ColorScheme-Text { color:#5c616c; } .ColorScheme-Highlight { color:#5294e2; }
  </style>
  <linearGradient id="oomox" x1="0%" x2="0%" y1="0%" y2="100%">
   <stop offset="0%" style="stop-color:#f99f5e"/>
   <stop offset="100%" style="stop-color:#f95e6b"/>
  </linearGradient>
 </defs>
 <g  transform="translate(-492 -180)">
  <path style="fill:url(#oomox)" class="ColorScheme-Text" d="M494 187v9h12v-9zm1 1h10v7h-10z" font-family="sans-serif" font-weight="400" overflow="visible"/>
  <path style="fill:url(#oomox)" class="ColorScheme-Text" d="M500 180a5 5 0 0 0-5 5v2h1v-2c0-2.222 1.778-4 4-4s4 1.778 4 4v2h1v-2a5 5 0 0 0-5-5z" font-family="sans-serif" font-weight="400" overflow="visible"/>
  <path style="fill:url(#oomox)" class="ColorScheme-Text" d="M494 187v9h12v-9zm1 1h10v7h-10zm4 2v3h2v-3.25z" font-family="sans-serif" font-weight="400" overflow="visible"/>
 </g>
</svg>
