<svg xmlns="http://www.w3.org/2000/svg" style="isolation:isolate" width="16" height="16" viewBox="0 0 16 16">
 <defs>
  <style id="current-color-scheme" type="text/css">
   .ColorScheme-Text { color:#5c616c; } .ColorScheme-Highlight { color:#5294e2; }
  </style>
  <linearGradient id="oomox" x1="0%" x2="0%" y1="0%" y2="100%">
   <stop offset="0%" style="stop-color:#f99f5e"/>
   <stop offset="100%" style="stop-color:#f95e6b"/>
  </linearGradient>
 </defs>
 <path style="fill:url(#oomox)" class="ColorScheme-Text" fill-rule="evenodd" d="M 5.36 13.667 L 5.333 13.667 C 5.333 14.955 6.527 16 8 16 C 9.473 16 10.667 14.955 10.667 13.667 L 10.667 13.667 L 10.64 13.667 C 10.657 13.558 10.667 13.447 10.667 13.333 L 5.333 13.333 C 5.333 13.447 5.343 13.558 5.36 13.667 Z M 12.008 13.5 C 12.002 13.555 12 13.61 12 13.667 L 12 13.667 C 12 14.77 12.896 15.667 14 15.667 C 15.104 15.667 16 14.77 16 13.667 C 16 13.61 15.998 13.555 15.992 13.5 C 15.998 13.445 16 13.39 16 13.333 C 16 12.23 15.104 11.333 14 11.333 C 12.896 11.333 12 12.23 12 13.333 C 12 13.39 12.002 13.445 12.008 13.5 L 12.008 13.5 L 12.008 13.5 Z M 0.008 13.5 C 0.002 13.555 0 13.61 0 13.667 C 0 14.77 0.896 15.667 2 15.667 C 3.104 15.667 4 14.77 4 13.667 C 4 13.61 3.998 13.555 3.992 13.5 C 3.998 13.445 4 13.39 4 13.333 C 4 12.23 3.104 11.333 2 11.333 C 0.896 11.333 0 12.23 0 13.333 C 0 13.39 0.002 13.445 0.008 13.5 L 0.008 13.5 L 0.008 13.5 L 0.008 13.5 Z"/>
</svg>
