<svg xmlns="http://www.w3.org/2000/svg" style="isolation:isolate" width="16" height="16" viewBox="0 0 16 16">
 <defs>
  <style id="current-color-scheme" type="text/css">
   .ColorScheme-Text { color:#5c616c; } .ColorScheme-Highlight { color:#5294e2; }
  </style>
  <linearGradient id="grad1" x1="0%" x2="0%" y1="0%" y2="100%">
   <stop offset="0%" style="stop-color:#f99f5e"/>
   <stop offset="100%" style="stop-color:#f95e6b"/>
  </linearGradient>
 </defs>
 <path style="fill:url(#grad1)" class="ColorScheme-Text" d="M 4.883 10.895 L 4.883 0.856 L 4.868 0.829 L 4.417 0 L 4.911 0 L 5.373 0 L 6.366 0 L 6.923 0 L 10.595 0 L 11.583 0.989 L 11.583 3.177 L 9.465 3.177 L 9.465 2.471 L 6.994 2.471 L 6.994 4.943 L 9.818 4.943 L 9.818 7.061 L 6.994 7.061 L 6.994 9.754 L 6.994 10.874 L 9.465 9.391 L 9.465 8.473 L 11.583 8.473 L 11.583 10.874 L 4.883 16 L 4.883 14.828 L 4.883 13.387 L 4.883 10.895 Z"/>
</svg>
