<svg xmlns="http://www.w3.org/2000/svg" style="isolation:isolate" width="16" height="16" viewBox="0 0 16 16">
 <defs>
  <style id="current-color-scheme" type="text/css">
   .ColorScheme-Text { color:#5c616c; } .ColorScheme-Highlight { color:#5294e2; }
  </style>
  <linearGradient id="oomox" x1="0%" x2="0%" y1="0%" y2="100%">
   <stop offset="0%" style="stop-color:#f99f5e; stop-opacity:1"/>
   <stop offset="100%" style="stop-color:#f95e6b; stop-opacity:1"/>
  </linearGradient>
  <clipPath id="_clipPath_eMbtlnxwq57nK3mNkkXJh9cWOQt5zDk2">
   <rect width="16" height="16"/>
  </clipPath>
 </defs>
 <g clip-path="url(#_clipPath_eMbtlnxwq57nK3mNkkXJh9cWOQt5zDk2)">
  <rect style="fill:url(#oomox)" class="ColorScheme-Text" fill-opacity="0" width="16" height="16"/>
  <path style="fill:url(#oomox)" class="ColorScheme-Text" d="M 6.235 10.511 L 5.619 10.511 L 5.619 9.921 C 5.619 9.884 5.588 9.853 5.551 9.853 L 1.668 9.853 C 1.631 9.853 1.601 9.884 1.601 9.921 L 1.601 10.511 L 1.564 10.511 C 1.261 10.511 1.015 10.756 1.015 11.059 L 1.015 15.452 C 1.015 15.754 1.261 16 1.564 16 L 14.436 16 C 14.739 16 14.985 15.754 14.985 15.452 L 14.985 11.059 C 14.985 10.756 14.739 10.511 14.436 10.511 L 14.399 10.511 L 14.399 9.921 C 14.399 9.884 14.369 9.853 14.332 9.853 L 10.449 9.853 C 10.412 9.853 10.381 9.884 10.381 9.921 L 10.381 10.511 L 9.36 10.511 L 9.36 8.982 C 9.36 8.916 9.306 8.862 9.24 8.862 L 8.589 8.862 L 8.589 5.45 C 9.367 5.252 10.053 4.717 10.417 3.932 C 11.059 2.545 10.456 0.9 9.069 0.257 C 7.682 -0.385 6.037 0.218 5.394 1.604 C 4.752 2.991 5.354 4.636 6.741 5.279 L 6.742 5.28 C 6.829 5.32 6.918 5.356 7.007 5.386 L 7.007 8.862 L 6.356 8.862 C 6.289 8.862 6.235 8.916 6.235 8.982 L 6.235 10.511 Z"/>
 </g>
</svg>
