<svg xmlns="http://www.w3.org/2000/svg" xmlns:xlink="http://www.w3.org/1999/xlink" style="isolation:isolate" width="16" height="16" viewBox="0 0 16 16">
 <defs>
  <style id="current-color-scheme" type="text/css">
   .ColorScheme-Text { color:#5c616c; } .ColorScheme-Highlight { color:#5294e2; }
  </style>
  <linearGradient id="grad1" x1="0%" x2="0%" y1="0%" y2="100%">
   <stop offset="0%" style="stop-color:#f99f5e; stop-opacity:1"/>
   <stop offset="100%" style="stop-color:#f95e6b; stop-opacity:1"/>
  </linearGradient>
  <clipPath id="_clipPath_uXCgxcya0gshLOCZ8Dd7a2VHPE1d4fQ7">
   <rect width="16" height="16"/>
  </clipPath>
 </defs>
  <g clip-path="url(#_clipPath_uXCgxcya0gshLOCZ8Dd7a2VHPE1d4fQ7)">
   <rect style="fill:#000000" fill-opacity="0" width="16" height="16"/>
    <path style="fill:url(#grad1)" class="ColorScheme-Text" d="M 7.512 8 C 7.512 9.798 6.054 11.256 4.256 11.256 C 2.458 11.256 1 9.798 1 8 C 1 6.202 2.458 4.744 4.256 4.744 C 6.054 4.744 7.512 6.202 7.512 8 Z"/>
    <path style="fill:url(#grad1)" class="ColorScheme-Text" d="M 15 8 C 15 9.798 13.542 11.256 11.744 11.256 C 9.946 11.256 8.488 9.798 8.488 8 C 8.488 6.202 9.946 4.744 11.744 4.744 C 13.542 4.744 15 6.202 15 8 Z"/>
  </g>
</svg>
