<svg xmlns="http://www.w3.org/2000/svg" style="isolation:isolate" width="16" height="16" viewBox="0 0 16 16">
 <defs>
  <style id="current-color-scheme" type="text/css">
   .ColorScheme-Text { color:#5c616c; } .ColorScheme-Highlight { color:#5294e2; }
  </style>
  <linearGradient id="oomox" x1="0%" x2="0%" y1="0%" y2="100%">
   <stop offset="0%" style="stop-color:#f99f5e"/>
   <stop offset="100%" style="stop-color:#f95e6b"/>
  </linearGradient>
 </defs>
 <path style="fill:url(#oomox)" class="ColorScheme-Text" d="M 9.032 8.955 L 7.059 8.976 L 8.12 5.793 L 15.504 5.751 L 12.281 15.937 L 7.375 15.937 L 8.12 13.687 C 3.897 14.578 0.523 13.217 0.502 10.249 C 0.316 5.317 4.491 0.297 10.411 0 C 13.191 0.082 14.855 1.257 15.398 3.523 L 10.624 5.241 C 10.373 4.211 9.696 3.795 8.587 3.989 C 6.401 4.626 5.025 7.327 5.51 8.976 C 5.75 9.785 6.473 9.996 7.207 9.973 C 7.952 10.016 8.562 9.678 9.032 8.955 Z"/>
</svg>
