<svg xmlns="http://www.w3.org/2000/svg" width="16" height="16" version="1.1" viewBox="0 0 4.23 4.23">
<defs>
  <style id="current-color-scheme" type="text/css">
   .ColorScheme-Text { color:#5c616c; } .ColorScheme-Highlight { color:#5294e2; }
  </style>
  <linearGradient id="grad1" x1="0%" x2="0%" y1="0%" y2="100%">
   <stop offset="0%" style="stop-color:#f99f5e; stop-opacity:1"/>
   <stop offset="100%" style="stop-color:#f95e6b; stop-opacity:1"/>
  </linearGradient>
 </defs>
<defs>
  <style id="current-color-scheme" type="text/css">
   .ColorScheme-Text { color:#5c616c; } .ColorScheme-Highlight { color:#5294e2; }
  </style>
  <linearGradient id="grad1" x1="0%" x2="0%" y1="0%" y2="100%">
   <stop offset="0%" style="stop-color:#f99f5e; stop-opacity:1"/>
   <stop offset="100%" style="stop-color:#f95e6b; stop-opacity:1"/>
  </linearGradient>
 </defs>>
 <g transform="translate(0,-292.76665)">
  <path d="m 2.5674202,292.89896 a 0.12620853,0.12620853 0 0 0 -0.031673,0.008 l -2.18544997,0.70985 a 0.12620853,0.12620853 0 0 0 -0.0857042,0.11924 v 2.29537 a 0.12620853,0.12620853 0 0 0 0.0857042,0.1211 l 2.18544997,0.70949 a 0.12620853,0.12620853 0 0 0 0.1397346,-0.0466 l 1.3507683,-1.85754 a 0.12620853,0.12620853 0 0 0 0,-0.14905 l -1.3507683,-1.85753 a 0.12620853,0.12620853 0 0 0 -0.1080615,-0.0522 z m -0.040989,0.27574 1.2408436,1.70849 -1.2427068,1.71035 -2.00845271,-0.65396 v -2.11279 z" style="solid-color:#5c616c;fill:url(#grad1)"/>
 </g>
</svg>
