<svg xmlns="http://www.w3.org/2000/svg" style="isolation:isolate" width="16" height="16" viewBox="0 0 16 16">
 <defs>
  <style id="current-color-scheme" type="text/css">
   .ColorScheme-Text { color:#5c616c; } .ColorScheme-Highlight { color:#5294e2; }
  </style>
  <linearGradient id="grad1" x1="0%" x2="0%" y1="0%" y2="100%">
   <stop offset="0%" style="stop-color:#f99f5e"/>
   <stop offset="100%" style="stop-color:#f95e6b"/>
  </linearGradient>
 </defs>
 <path style="fill:url(#grad1)" class="ColorScheme-Text" d="M 6.624 0 L 4.272 9.041 C 3.595 5.285 3.011 3.29 2.215 1.7 C 1.508 2.348 0.914 3.11 0.457 3.954 C 1.019 5.397 1.56 7.337 2.286 10.4 C 3.067 13.733 4.331 14.937 7.223 15.507 L 9.294 16 L 11.645 6.958 C 12.344 10.832 12.945 12.833 13.78 14.448 C 14.483 13.821 15.079 13.083 15.543 12.263 C 14.951 10.802 14.393 8.812 13.632 5.6 C 12.851 2.267 11.586 1.063 8.695 0.493 L 6.624 0 Z M 8.601 2.406 C 10.067 2.798 10.626 3.512 11.078 4.972 L 10.085 4.972 L 7.317 13.594 C 5.851 13.202 5.292 12.488 4.84 11.028 L 5.834 11.028 L 8.601 2.406 Z"/>
</svg>
