<svg xmlns="http://www.w3.org/2000/svg" xmlns:xlink="http://www.w3.org/1999/xlink" style="isolation:isolate" width="16" height="16" viewBox="0 0 16 16">
 <defs>
  <style id="current-color-scheme" type="text/css">
   .ColorScheme-Text { color:#5c616c; } .ColorScheme-Highlight { color:#5294e2; }
  </style>
  <linearGradient id="grad1" x1="0%" x2="0%" y1="0%" y2="100%">
   <stop offset="0%" style="stop-color:#f99f5e; stop-opacity:1"/>
   <stop offset="100%" style="stop-color:#f95e6b; stop-opacity:1"/>
  </linearGradient>
  <clipPath id="_clipPath_gAfg5srIr2lMsxnBorkjUOkqxaK6nJmA">
   <rect width="16" height="16"/>
  </clipPath>
 </defs>
  <g clip-path="url(#_clipPath_gAfg5srIr2lMsxnBorkjUOkqxaK6nJmA)">
   <rect style="fill:#000000" fill-opacity="0" width="16" height="16"/>
   <path style="fill:url(#grad1)" class="ColorScheme-Text" d="M 15.636 6.545 L 8.182 6.545 L 8.182 9.636 L 12.473 9.636 C 12.073 11.6 10.4 12.727 8.182 12.727 C 5.564 12.727 3.455 10.618 3.455 8 C 3.455 5.382 5.564 3.273 8.182 3.273 C 9.309 3.273 10.327 3.673 11.127 4.327 L 13.455 2 C 12.036 0.764 10.218 0 8.182 0 C 3.745 0 0.182 3.564 0.182 8 C 0.182 12.436 3.745 16 8.182 16 C 12.182 16 15.818 13.091 15.818 8 C 15.818 7.527 15.745 7.018 15.636 6.545 Z"/>
  </g>
</svg>
