<svg xmlns="http://www.w3.org/2000/svg" style="isolation:isolate" width="16" height="16" viewBox="0 0 16 16">
 <defs>
  <style id="current-color-scheme" type="text/css">
   .ColorScheme-Text { color:#5c616c; } .ColorScheme-Highlight { color:#5294e2; }
  </style>
  <linearGradient id="oomox" x1="0%" x2="0%" y1="0%" y2="100%">
   <stop offset="0%" style="stop-color:#f99f5e; stop-opacity:1"/>
   <stop offset="100%" style="stop-color:#f95e6b; stop-opacity:1"/>
  </linearGradient>
  <clipPath id="_clipPath_l1yTnLfRJtTEycEAah9sAwJ9NGpBr5fi">
   <rect width="16" height="16"/>
  </clipPath>
 </defs>
 <g clip-path="url(#_clipPath_l1yTnLfRJtTEycEAah9sAwJ9NGpBr5fi)">
  <rect style="fill:url(#oomox)" class="ColorScheme-Text" fill-opacity="0" width="16" height="16"/>
  <path style="fill:url(#oomox)" class="ColorScheme-Text" d="M 2.426 8.001 L 0.213 10.213 C 0.077 10.349 0 10.534 0 10.727 L 0 15.273 C 0 15.674 0.326 16 0.727 16 L 5.273 16 C 5.466 16 5.65 15.924 5.787 15.788 L 8 13.575 L 10.213 15.788 C 10.35 15.924 10.534 16 10.727 16 L 15.273 16 C 15.674 16 16 15.674 16 15.273 L 16 10.727 C 16 10.534 15.923 10.349 15.787 10.213 L 13.574 8.001 L 13.574 8.001 L 15.787 5.788 C 15.923 5.651 16 5.466 16 5.273 L 16 0.727 C 16 0.326 15.674 0 15.273 0 L 10.727 0 C 10.534 0 10.349 0.077 10.213 0.213 L 8 2.426 L 5.787 0.213 C 5.651 0.077 5.466 0 5.273 0 L 0.727 0 C 0.326 0 0 0.326 0 0.727 L 0 5.273 C 0 5.466 0.077 5.651 0.213 5.788 L 2.426 8.001 Z"/>
 </g>
</svg>
