<svg xmlns="http://www.w3.org/2000/svg" width="16" height="16" version="1.1">
<defs>
  <style id="current-color-scheme" type="text/css">
   .ColorScheme-Text { color:#5c616c; } .ColorScheme-Highlight { color:#5294e2; }
  </style>
  <linearGradient id="grad1" x1="0%" x2="0%" y1="0%" y2="100%">
   <stop offset="0%" style="stop-color:#f99f5e; stop-opacity:1"/>
   <stop offset="100%" style="stop-color:#f95e6b; stop-opacity:1"/>
  </linearGradient>
 </defs>
 <g transform="translate(-283,-649)">
  <path d="m 291.0002,650.00714 c -2.20283,0 -3.99286,1.79004 -3.99286,3.99286 0,2.20282 1.79003,3.99286 3.99286,3.99286 2.20282,0 3.99285,-1.79004 3.99285,-3.99286 0,-2.20282 -1.79003,-3.99286 -3.99285,-3.99286 z m 0,1.05238 c 1.62635,0 2.94047,1.31413 2.94047,2.94048 0,1.62635 -1.31412,2.94048 -2.94047,2.94048 -1.62636,0 -2.94048,-1.31413 -2.94048,-2.94048 0,-1.62635 1.31412,-2.94048 2.94048,-2.94048 z" style="fill:url(#grad1)" class="ColorScheme-Text"/>
  <path d="m 287.0002,657.00714 c -2.20283,0 -3.99286,1.79004 -3.99286,3.99286 0,2.20282 1.79003,3.99286 3.99286,3.99286 2.20282,0 3.99285,-1.79004 3.99285,-3.99286 0,-2.20282 -1.79003,-3.99286 -3.99285,-3.99286 z m 0,1.05238 c 1.62635,0 2.94047,1.31413 2.94047,2.94048 0,1.62635 -1.31412,2.94048 -2.94047,2.94048 -1.62636,0 -2.94048,-1.31413 -2.94048,-2.94048 0,-1.62635 1.31412,-2.94048 2.94048,-2.94048 z" style="fill:#acacac"/>
  <path d="m -2,321 a 7,7 0 0 1 -7,7 7,7 0 0 1 -7,-7 7,7 0 0 1 7,-7 7,7 0 0 1 7,7 z" transform="matrix(0.57130665,0,0,0.57130665,300.14111,477.61056)" style="fill:url(#grad1)" class="ColorScheme-Text"/>
  <path d="m -2,321 a 7,7 0 0 1 -7,7 7,7 0 0 1 -7,-7 7,7 0 0 1 7,-7 7,7 0 0 1 7,7 z" transform="matrix(0.49523816,0,0,0.49523816,291.45734,502.02855)" style="fill:#acacac;fill-opacity:0.66666669"/>
 </g>
</svg>
