<svg xmlns="http://www.w3.org/2000/svg" style="isolation:isolate" width="16" height="16" viewBox="0 0 16 16">
 <defs>
  <style id="current-color-scheme" type="text/css">
   .ColorScheme-Text { color:#5c616c; } .ColorScheme-Highlight { color:#5294e2; }
  </style>
  <linearGradient id="oomox" x1="0%" x2="0%" y1="0%" y2="100%">
   <stop offset="0%" style="stop-color:#f99f5e"/>
   <stop offset="100%" style="stop-color:#f95e6b"/>
  </linearGradient>
 </defs>
 <path style="fill:url(#oomox)" class="ColorScheme-Text" d="M 0 2.667 L 0 13.333 L 16 13.333 L 16 2.667 L 0 2.667 Z M 1.333 4 L 14.667 4 L 14.667 12 L 1.333 12 L 1.333 4 Z M 6 6 L 5.104 7.333 L 3.333 7.333 L 3.333 10 L 5.333 10 L 5.333 9.333 L 6.667 9.333 L 6.667 10 L 9.333 10 L 9.333 9.333 L 10.667 9.333 L 10.667 10 L 12.667 10 L 12.667 7.333 L 10.896 7.333 L 10 6 L 6 6 Z"/>
</svg>
