<svg xmlns="http://www.w3.org/2000/svg" style="isolation:isolate" width="16" height="16" viewBox="0 0 16 16">
 <defs>
  <style id="current-color-scheme" type="text/css">
   .ColorScheme-Text { color:#5c616c; } .ColorScheme-Highlight { color:#5294e2; }
  </style>
  <linearGradient id="oomox" x1="0%" x2="0%" y1="0%" y2="100%">
   <stop offset="0%" style="stop-color:#f99f5e; stop-opacity:1"/>
   <stop offset="100%" style="stop-color:#f95e6b; stop-opacity:1"/>
  </linearGradient>
  <clipPath id="_clipPath_pmADflpHmGqq3wPTrCNHdMw2KxDKZ3yN">
   <rect width="16" height="16"/>
  </clipPath>
 </defs>
 <g clip-path="url(#_clipPath_pmADflpHmGqq3wPTrCNHdMw2KxDKZ3yN)">
  <rect style="fill:url(#oomox)" class="ColorScheme-Text" fill-opacity="0" width="16" height="16"/>
  <path style="fill:url(#oomox)" class="ColorScheme-Text" d="M 8 0 C 3.582 0 0 3.582 0 8 C 0.001 8.739 0.104 9.475 0.306 10.186 C 0.293 10.029 0.286 9.872 0.286 9.714 C 0.286 6.401 2.972 3.714 6.286 3.714 C 9.599 3.714 12.286 6.401 12.286 9.714 C 12.286 13.028 9.599 15.714 6.286 15.714 C 6.132 15.712 5.978 15.705 5.825 15.691 C 6.532 15.894 7.264 15.998 8 16 C 12.418 16 16 12.418 16 8 C 16 3.582 12.418 0 8 0 Z"/>
 </g>
</svg>
