<svg xmlns="http://www.w3.org/2000/svg" style="isolation:isolate" width="16" height="16" viewBox="0 0 16 16">
 <defs>
  <style id="current-color-scheme" type="text/css">
   .ColorScheme-Text { color:#5c616c; } .ColorScheme-Highlight { color:#5294e2; }
  </style>
  <linearGradient id="oomox" x1="0%" x2="0%" y1="0%" y2="100%">
   <stop offset="0%" style="stop-color:#f99f5e"/>
   <stop offset="100%" style="stop-color:#f95e6b"/>
  </linearGradient>
 </defs>
 <path style="fill:url(#oomox)" class="ColorScheme-Text" d="M 0 0 L 0 13.207 L 10.087 13.217 L 10.087 4.033 L 6.054 0.01 L 0 0 Z M 5.913 0.696 L 9.391 4.174 L 5.913 4.174 L 5.913 0.696 Z M 10.783 2.783 L 10.783 9.25 L 11.228 8.793 L 11.728 9.294 L 10.783 10.228 L 10.783 10.435 L 13.913 10.435 L 13.913 11.13 L 10.783 11.13 L 10.783 11.337 L 11.728 12.272 L 11.228 12.772 L 10.783 12.315 L 10.783 13.913 L 5.913 13.913 L 5.913 15.989 L 16 16 L 16 6.815 L 11.967 2.793 L 10.783 2.783 Z M 11.826 3.478 L 15.304 6.957 L 11.826 6.957 L 11.826 3.478 Z M 5.467 6.359 L 7.446 8.348 L 5.467 10.337 L 4.967 9.837 L 6.12 8.696 L 2.783 8.696 L 2.783 8 L 6.12 8 L 4.967 6.859 L 5.467 6.359 Z"/>
</svg>
