<svg xmlns="http://www.w3.org/2000/svg" width="16.015" height="16.079" version="1.1">
<defs>
  <style id="current-color-scheme" type="text/css">
   .ColorScheme-Text { color:#5c616c; } .ColorScheme-Highlight { color:#5294e2; }
  </style>
  <linearGradient id="oomox" x1="0%" x2="0%" y1="0%" y2="100%">
   <stop offset="0%" style="stop-color:#f99f5e; stop-opacity:1"/>
   <stop offset="100%" style="stop-color:#f95e6b; stop-opacity:1"/>
  </linearGradient>
 </defs>
 <g transform="translate(-492,-259.92)">
  <path style="fill:url(#oomox)" class="ColorScheme-Text" d="M 500.18,261 A 6.99,6.99 0 0 0 493.93,264.5 C 492.01,267.84 493.16,272.13 496.5,274.06 499.85,275.99 504.14,274.85 506.07,271.51 508,268.17 506.84,263.88 503.5,261.94 A 6.98,6.98 0 0 0 500.18,261 Z M 500,262 A 6,6 0 0 1 506,268 6,6 0 0 1 500,274 6,6 0 0 1 494,268 6,6 0 0 1 500,262 Z"/>
 </g>
</svg>
