<svg xmlns="http://www.w3.org/2000/svg" style="isolation:isolate" width="16" height="16" viewBox="0 0 16 16">
 <defs>
  <style id="current-color-scheme" type="text/css">
   .ColorScheme-Text { color:#5c616c; } .ColorScheme-Highlight { color:#5294e2; }
  </style>
  <linearGradient id="oomox" x1="0%" x2="0%" y1="0%" y2="100%">
   <stop offset="0%" style="stop-color:#f99f5e"/>
   <stop offset="100%" style="stop-color:#f95e6b"/>
  </linearGradient>
 </defs>
 <g opacity=".6">
  <path style="fill:url(#oomox)" class="ColorScheme-Text" d="M 1.333 11 L 1.333 9.667 L 7.333 9.667 L 7.333 5 L 14.667 5 L 14.667 6.333 L 8.667 6.333 L 8.667 11 L 1.333 11 Z"/>
 </g>
 <path style="fill:url(#oomox)" class="ColorScheme-Text" d="M 8 4.333 C 7.264 4.333 6.667 4.93 6.667 5.667 C 6.667 6.403 7.264 7 8 7 C 8.736 7 9.333 6.403 9.333 5.667 C 9.333 4.93 8.736 4.333 8 4.333 Z M 14.667 4.333 C 13.93 4.333 13.333 4.93 13.333 5.667 C 13.333 6.403 13.93 7 14.667 7 C 15.403 7 16 6.403 16 5.667 C 16 4.93 15.403 4.333 14.667 4.333 Z M 1.333 9 C 0.597 9 0 9.597 0 10.333 C 0 11.07 0.597 11.667 1.333 11.667 C 2.07 11.667 2.667 11.07 2.667 10.333 C 2.667 9.597 2.07 9 1.333 9 Z M 8 9 C 7.264 9 6.667 9.597 6.667 10.333 C 6.667 11.07 7.264 11.667 8 11.667 C 8.736 11.667 9.333 11.07 9.333 10.333 C 9.333 9.597 8.736 9 8 9 Z"/>
</svg>
