<svg xmlns="http://www.w3.org/2000/svg" style="isolation:isolate" width="16" height="16" viewBox="0 0 16 16">
 <defs>
  <style id="current-color-scheme" type="text/css">
   .ColorScheme-Text { color:#5c616c; } .ColorScheme-Highlight { color:#5294e2; }
  </style>
  <linearGradient id="oomox" x1="0%" x2="0%" y1="0%" y2="100%">
   <stop offset="0%" style="stop-color:#f99f5e"/>
   <stop offset="100%" style="stop-color:#f95e6b"/>
  </linearGradient>
 </defs>
 <path style="fill:url(#oomox)" class="ColorScheme-Text" d="M 14.154 3.692 L 1.63 3.692 C 1.089 3.692 0.608 3.584 0.608 3.077 L 14.154 2.462 L 14.154 1.231 C 14.154 0.212 13.327 0 12.308 0 L 1.243 1.846 C 0.257 2.065 0 2.483 0 3.077 L 0 14.154 C 0 15.173 0.827 16 1.846 16 L 14.154 16 C 15.173 16 16 15.173 16 14.154 L 16 5.538 C 16 4.519 15.173 3.692 14.154 3.692 Z M 13.538 11.077 C 12.859 11.077 12.308 10.526 12.308 9.846 C 12.308 9.166 12.859 8.615 13.538 8.615 C 14.218 8.615 14.769 9.166 14.769 9.846 C 14.769 10.526 14.218 11.077 13.538 11.077 Z"/>
</svg>
