<svg xmlns="http://www.w3.org/2000/svg" width="16" height="16" version="1.1">
<defs>
  <style id="current-color-scheme" type="text/css">
   .ColorScheme-Text { color:#5c616c; } .ColorScheme-Highlight { color:#5294e2; }
  </style>
  <linearGradient id="oomox" x1="0%" x2="0%" y1="0%" y2="100%">
   <stop offset="0%" style="stop-color:#f99f5e; stop-opacity:1"/>
   <stop offset="100%" style="stop-color:#f95e6b; stop-opacity:1"/>
  </linearGradient>
 </defs>
 <g transform="matrix(0.17500238,0,0,0.17500238,-68.374535,-80.79471)">
  <g transform="matrix(2.2295318,0,0,2.2295318,-476.75918,-656.11502)">
   <path style="fill:none; stroke: url(#oomox)" class="ColorScheme-Text" d="m 389.57,524.29 c 13.01,0 15.772,14.973 21.511,15.02 5.739,0.042 5.484,-15.02 18.489,-15.02"/>
   <path style="fill:none; stroke: url(#oomox)" class="ColorScheme-Text" d="m 389.57,523.31 c 13.01,0 15.772,-10.274 21.511,-10.316 5.739,-0.042 5.484,10.316 18.489,10.316"/>
  </g>
  <path style="fill:none; stroke: url(#oomox)" class="ColorScheme-Text" stroke-width="1.5" d="m 6.7659028,257.98498 c 17.1548972,0 20.7968502,-19.74327 28.3642582,-19.80527 7.567404,-0.0553 7.231166,19.80527 24.37947,19.80527" transform="matrix(1.6908413,0,0,1.6908413,380.35948,74.409627)"/>
  <rect style="fill:none; stroke: url(#oomox)" class="ColorScheme-Text" stroke-width="2.5" width="90" height="2.3" x="391.83" y="511.71"/>
  <rect style="fill:none; stroke: url(#oomox)" class="ColorScheme-Text" stroke-width="2.5" width="2.3" height="6.689" x="407.41" y="509.48"/>
  <rect style="fill:none; stroke: url(#oomox)" class="ColorScheme-Text" stroke-width="2.5" width="2.3" height="6.689" x="438.62" y="509.48"/>
  <rect style="fill:none; stroke: url(#oomox)" class="ColorScheme-Text" stroke-width="2.5" width="2.3" height="6.689" x="469.83" y="509.48"/>
 </g>
</svg>
