<svg xmlns="http://www.w3.org/2000/svg" style="isolation:isolate" width="16" height="16" viewBox="0 0 16 16">
 <defs>
  <style id="current-color-scheme" type="text/css">
   .ColorScheme-Text { color:#5c616c; } .ColorScheme-Highlight { color:#5294e2; }
  </style>
  <linearGradient id="oomox" x1="0%" x2="0%" y1="0%" y2="100%">
   <stop offset="0%" style="stop-color:#f99f5e; stop-opacity:1"/>
   <stop offset="100%" style="stop-color:#f95e6b; stop-opacity:1"/>
  </linearGradient>
  <clipPath id="_clipPath_gYcg90uvXhWxEXZI8JiBS76AUFIGniaV">
   <rect width="16" height="16"/>
  </clipPath>
 </defs>
 <g clip-path="url(#_clipPath_gYcg90uvXhWxEXZI8JiBS76AUFIGniaV)">
  <rect style="fill:url(#oomox)" class="ColorScheme-Text" fill-opacity="0" width="16" height="16"/>
  <path style="fill:url(#oomox)" class="ColorScheme-Text" fill-rule="evenodd" d="M 8 0 C 5 0 1.571 4.8 1.571 8.6 C 1.571 12.4 3.58 16 8 16 C 12.42 16 14.429 12.4 14.429 8.6 C 14.429 4.8 11 0 8 0 Z M 4.143 10.429 C 4.143 8.3 5.871 6.571 8 6.571 C 10.129 6.571 11.857 8.3 11.857 10.429 C 11.857 12.557 10.129 14.286 8 14.286 C 5.871 14.286 4.143 12.557 4.143 10.429 Z"/>
 </g>
</svg>
