<svg xmlns="http://www.w3.org/2000/svg" width="16" height="16" version="1">
<defs>
  <style id="current-color-scheme" type="text/css">
   .ColorScheme-Text { color:#5c616c; } .ColorScheme-Highlight { color:#5294e2; }
  </style>
  <linearGradient id="oomox" x1="0%" x2="0%" y1="0%" y2="100%">
   <stop offset="0%" style="stop-color:#f99f5e; stop-opacity:1"/>
   <stop offset="100%" style="stop-color:#f95e6b; stop-opacity:1"/>
  </linearGradient>
 </defs>
 <path style="fill:none; stroke: url(#oomox)" class="ColorScheme-Text" stroke-width="1.5" d="M 3.245609,3.2025092 5.4600693,0.98804892 V 10.246707 c 0,-1.3161272 1.2678524,-2.6152772 2.5838322,-2.6152772 1.3156848,0 2.5835365,1.2995928 2.5835365,2.6152772 0,1.315685 -1.2678517,2.551797 -2.5835365,2.551797 -1.3159798,0 -2.5838322,-1.236407 -2.5838322,-2.551797 M 7.6622762,5.4320279 C 9.7274082,5.2674713 11.664986,6.4469149 12.467138,8.3569608 13.269363,10.267007 12.75507,12.476226 11.191757,13.83561 9.6284442,15.194993 7.3692293,15.397468 5.5890247,14.337798 3.8088939,13.278105 2.9098968,11.195552 3.3596537,9.173233"/>
</svg>
