<svg xmlns="http://www.w3.org/2000/svg" width="16" height="16" version="1.1">
<defs>
  <style id="current-color-scheme" type="text/css">
   .ColorScheme-Text { color:#5c616c; } .ColorScheme-Highlight { color:#5294e2; }
  </style>
  <linearGradient id="oomox" x1="0%" x2="0%" y1="0%" y2="100%">
   <stop offset="0%" style="stop-color:#f99f5e; stop-opacity:1"/>
   <stop offset="100%" style="stop-color:#f95e6b; stop-opacity:1"/>
  </linearGradient>
 </defs>
 <g transform="translate(-323.03 -649.03)" style="fill:url(#oomox)" class="ColorScheme-Text">
  <path style="opacity:0.99999999;fill:url(#oomox)" d="m331.94 653c0.0187 0.16677 0.0625 0.32822 0.0625 0.5 0 2.4853-2.0147 4.5-4.5 4.5-0.11769 0-0.22834-0.0224-0.34375-0.0312v2.2188c0 1.0041 0.80838 1.8125 1.8125 1.8125l1.5451-0.00005 2 2.0469 2.0625-2.0469h1.6111c1.0041 0 1.8125-0.80838 1.8125-1.8125v-5.375c0-1.0041-0.80837-1.8125-1.8125-1.8125z"/>
  <path style="fill:url(#oomox)" class="ColorScheme-Text" d="m327.5 650c-1.933 0-3.5 1.567-3.5 3.5s1.567 3.5 3.5 3.5 3.5-1.567 3.5-3.5-1.567-3.5-3.5-3.5zm-0.53125 1h1.0312l-0.0625 1.375a0.19952 0.19952 0 0 0 0 0.0625 0.19952 0.19952 0 0 0 0 0.0312 0.19952 0.19952 0 0 0 0.125 0.125 0.19952 0.19952 0 0 0 0.0312 0 0.19952 0.19952 0 0 0 0.0625 0 0.19952 0.19952 0 0 0 0.0625 0 0.19952 0.19952 0 0 0 0.0312 -0.0312l1.1562-0.75 0.5 0.90625-1.2188 0.625a0.19952 0.19952 0 0 0 -0.0312 0 0.19952 0.19952 0 0 0 -0.0312 0.0312 0.19952 0.19952 0 0 0 -0.0312 0.0937 0.19952 0.19952 0 0 0 0 0.0625 0.19952 0.19952 0 0 0 0 0.0312 0.19952 0.19952 0 0 0 0.0312 0.0625 0.19952 0.19952 0 0 0 0.0312 0.0312 0.19952 0.19952 0 0 0 0.0312 0.0312l1.25 0.625-0.53125 0.90625-1.1562-0.781a0.19952 0.19952 0 0 0 -0.0312 0 0.19952 0.19952 0 0 0 -0.0625 -0.0312 0.19952 0.19952 0 0 0 -0.0625 0 0.19952 0.19952 0 0 0 -0.125 0.0937 0.19952 0.19952 0 0 0 -0.0312 0.0312 0.19952 0.19952 0 0 0 0 0.0312 0.19952 0.19952 0 0 0 0 0.0625l0.0625 1.3751h-1.0312l0.0937-1.375a0.19952 0.19952 0 0 0 -0.0312 -0.0937 0.19952 0.19952 0 0 0 -0.0312 -0.0625 0.19952 0.19952 0 0 0 -0.0625 -0.0312 0.19952 0.19952 0 0 0 -0.0625 -0.0312 0.19952 0.19952 0 0 0 -0.0312 0 0.19952 0.19952 0 0 0 -0.0937 0.0312l-1.1875 0.78125-0.5-0.90625 1.25-0.625a0.19952 0.19952 0 0 0 0.0312 -0.0312 0.19952 0.19952 0 0 0 0.0312 -0.0312 0.19952 0.19952 0 0 0 0.0312 -0.0625 0.19952 0.19952 0 0 0 0 -0.0312 0.19952 0.19952 0 0 0 0 -0.0625 0.19952 0.19952 0 0 0 0 -0.0312 0.19952 0.19952 0 0 0 -0.0312 -0.0625 0.19952 0.19952 0 0 0 -0.0312 -0.0312 0.19952 0.19952 0 0 0 -0.0312 0l-1.25-0.625 0.5-0.90625 1.1875 0.75a0.19952 0.19952 0 0 0 0.0312 0.0312 0.19952 0.19952 0 0 0 0.0625 0 0.19952 0.19952 0 0 0 0.0625 0 0.19952 0.19952 0 0 0 0.0312 0 0.19952 0.19952 0 0 0 0.0312 -0.0312 0.19952 0.19952 0 0 0 0.0312 -0.0312 0.19952 0.19952 0 0 0 0.0312 -0.0312 0.19952 0.19952 0 0 0 0 -0.0312 0.19952 0.19952 0 0 0 0.0312 -0.0625 0.19952 0.19952 0 0 0 0 -0.0312l-0.09-1.38z"/>
 </g>
</svg>
