<svg xmlns="http://www.w3.org/2000/svg" width="16" height="16" version="1.1">
<defs>
  <style id="current-color-scheme" type="text/css">
   .ColorScheme-Text { color:#5c616c; } .ColorScheme-Highlight { color:#5294e2; }
  </style>
  <linearGradient id="grad1" x1="0%" x2="0%" y1="0%" y2="100%">
   <stop offset="0%" style="stop-color:#f99f5e; stop-opacity:1"/>
   <stop offset="100%" style="stop-color:#f95e6b; stop-opacity:1"/>
  </linearGradient>
 </defs>
 <g  transform="translate(-1088 -74)">
  <path d="m 1096,74 c -4.412,0 -8,3.588 -8,8 0,4.412 3.588,8 8,8 4.412,0 8,-3.588 8,-8 0,-4.412 -3.588,-8 -8,-8 z m 0,1 c 3.872,0 7,3.128 7,7 0,3.872 -3.128,7 -7,7 -3.872,0 -7,-3.128 -7,-7 0,-3.872 3.128,-7 7,-7 z m 2.022,3.496 c -6.6813,7.669333 -3.3407,3.834667 0,0 z m -3.0983,5.368407 1.0848,2.694915 1.339,-2.627119 z" overflow="visible" style="fill:url(#grad1)" class="ColorScheme-Text"/>
  <g transform="translate(-0.36437988)">
   <circle cx="1093.364" cy="80.364" r="1.5" style="fill:url(#grad1)" class="ColorScheme-Text"/>
   <circle style="fill:url(#grad1)" class="ColorScheme-Text" cx="1099.364" cy="80.364" r="1.5"/>
  </g>
 </g>
</svg>
