<svg xmlns="http://www.w3.org/2000/svg" width="16" height="16">
 <defs>
  <style id="current-color-scheme" type="text/css">
   .ColorScheme-Text { color:#5c616c; } .ColorScheme-Highlight { color:#5294e2; }
  </style>
  <linearGradient id="oomox" x1="0%" x2="0%" y1="0%" y2="100%">
   <stop offset="0%" style="stop-color:#f99f5e"/>
   <stop offset="100%" style="stop-color:#f95e6b"/>
  </linearGradient>
 </defs>
 <g  transform="translate(-552 -180)">
  <path style="fill:url(#oomox)" class="ColorScheme-Text" d="M560.64 181.668c-2.158.002-3.992 1.331-4.869 3.232l-.06.13-.14.01c-1.993.145-3.571 1.87-3.571 3.968 0 2.193 1.716 3.992 3.837 3.992h9.285c1.592 0 2.878-1.35 2.878-2.988a2.958 2.958 0 0 0-1.805-2.734l-.137-.059-.01-.148c-.135-2.994-2.487-5.4-5.404-5.403zm0 1c2.368.002 4.292 1.952 4.405 4.447v.01l.05.776.704.296a1.944 1.944 0 0 1 1.195 1.815c.01 1.114-.846 1.988-1.87 1.988H555.837c-1.556 0-2.838-1.32-2.838-2.992 0-1.597 1.185-2.866 2.645-2.973l.722-.05.31-.663v-.004c.73-1.58 2.214-2.648 3.962-2.65z" font-family="sans-serif" font-weight="400" overflow="visible"/>
 </g>
</svg>
