<svg xmlns="http://www.w3.org/2000/svg" style="isolation:isolate" width="16" height="16" viewBox="0 0 16 16">
 <defs>
  <style id="current-color-scheme" type="text/css">
   .ColorScheme-Text { color:#5c616c; } .ColorScheme-Highlight { color:#5294e2; }
  </style>
  <linearGradient id="grad1" x1="0%" x2="0%" y1="0%" y2="100%">
   <stop offset="0%" style="stop-color:#f99f5e; stop-opacity:1"/>
   <stop offset="100%" style="stop-color:#f95e6b; stop-opacity:1"/>
  </linearGradient>
  <clipPath id="_clipPath_zyjCY1DbjqrLP01yn4Bw7lv4GlQXMnYx">
   <rect width="16" height="16"/>
  </clipPath>
 </defs>
 <g clip-path="url(#_clipPath_zyjCY1DbjqrLP01yn4Bw7lv4GlQXMnYx)">
  <rect style="fill:url(#grad1)" class="ColorScheme-Text" fill-opacity="0" width="16" height="16"/>
  <path style="fill:url(#grad1)" class="ColorScheme-Text" d="M 8 0 L 8.78 4.077 L 11.062 0.609 L 10.222 4.674 L 13.657 2.343 L 11.326 5.778 L 15.391 4.938 L 11.923 7.22 L 16 8 L 11.923 8.78 L 15.391 11.061 L 11.326 10.222 L 13.657 13.657 L 10.222 11.326 L 11.062 15.391 L 8.78 11.923 L 8 16 L 7.22 11.923 L 4.938 15.391 L 5.778 11.326 L 2.343 13.657 L 4.674 10.222 L 0.609 11.061 L 4.077 8.78 L 0 8 L 4.077 7.22 L 0.609 4.938 L 4.674 5.778 L 2.343 2.343 L 5.778 4.674 L 4.938 0.609 L 7.22 4.077 L 8 0 Z"/>
 </g>
</svg>
