<svg xmlns="http://www.w3.org/2000/svg" style="isolation:isolate" width="16" height="16" viewBox="0 0 16 16">
 <defs>
  <style id="current-color-scheme" type="text/css">
   .ColorScheme-Text { color:#5c616c; } .ColorScheme-Highlight { color:#5294e2; }
  </style>
  <linearGradient id="oomox" x1="0%" x2="0%" y1="0%" y2="100%">
   <stop offset="0%" style="stop-color:#f99f5e"/>
   <stop offset="100%" style="stop-color:#f95e6b"/>
  </linearGradient>
 </defs>
 <path style="fill:url(#oomox)" class="ColorScheme-Text" fill-rule="evenodd" d="M 12 0 L 12 12 L 14.4 12 L 14.4 0 L 12 0 L 12 0 Z M 12 13.6 L 12 16 L 14.4 16 L 14.4 13.6 L 12 13.6 L 12 13.6 Z M 8.4 0 C 4.644 0 1.6 2.686 1.6 6 C 1.6 9.314 4.644 12 8.4 12 C 9.078 11.999 9.752 11.909 10.4 11.733 L 10.4 9.919 C 9.781 10.235 9.095 10.4 8.4 10.4 C 5.97 10.4 4 8.43 4 6 C 4 3.57 5.97 1.6 8.4 1.6 C 9.096 1.602 9.781 1.768 10.4 2.086 L 10.4 0.272 C 9.752 0.094 9.078 0.002 8.4 0 Z"/>
</svg>
