<svg xmlns="http://www.w3.org/2000/svg" style="isolation:isolate" width="16" height="16" viewBox="0 0 16 16">
 <defs>
  <style id="current-color-scheme" type="text/css">
   .ColorScheme-Text { color:#5c616c; } .ColorScheme-Highlight { color:#5294e2; }
  </style>
  <linearGradient id="grad1" x1="0%" x2="0%" y1="0%" y2="100%">
   <stop offset="0%" style="stop-color:#f99f5e"/>
   <stop offset="100%" style="stop-color:#f95e6b"/>
  </linearGradient>
 </defs>
 <path style="fill:url(#grad1)" class="ColorScheme-Text" d="M 12.839 0 C 6.68 0 3.022 5.269 3.165 9.952 L 3.165 16 C 5.025 16 6.886 16 8.746 16 L 8.746 14.884 L 8.746 9.935 C 8.746 8.815 9.114 7.714 9.798 6.911 C 10.482 6.109 11.467 5.581 12.839 5.581 L 12.839 0 Z M 11.723 1.185 L 11.723 2.329 C 8.256 2.858 5.397 5.714 5.397 9.935 L 5.397 14.884 L 4.281 14.884 L 4.281 9.927 L 4.281 9.918 C 4.165 6.122 6.893 1.771 11.723 1.185 Z M 11.723 3.451 L 11.723 4.577 C 10.568 4.81 9.623 5.396 8.948 6.187 C 8.068 7.22 7.63 8.574 7.63 9.935 L 7.63 14.884 L 6.514 14.884 L 6.514 9.935 C 6.514 6.274 8.825 3.946 11.723 3.451 Z"/>
</svg>
