<svg xmlns="http://www.w3.org/2000/svg" width="16" height="16" version="1.1">
<defs>
  <style id="current-color-scheme" type="text/css">
   .ColorScheme-Text { color:#5c616c; } .ColorScheme-Highlight { color:#5294e2; }
  </style>
  <linearGradient id="grad1" x1="0%" x2="0%" y1="0%" y2="100%">
   <stop offset="0%" style="stop-color:#f99f5e; stop-opacity:1"/>
   <stop offset="100%" style="stop-color:#f95e6b; stop-opacity:1"/>
  </linearGradient>
 </defs>
 <g style="fill:url(#grad1)" class="ColorScheme-Text">
  <path d="m8-3.8e-7c-1.6534 0-3 1.3467-3 3v1h-1.9062c-0.60594 0-1.0938 0.48781-1.0938 1.0938v9.8125c0 0.60594 0.48781 1.0938 1.0938 1.0938h9.8125c0.60594 0 1.0938-0.48781 1.0938-1.0938v-9.8125c0-0.60594-0.48781-1.0938-1.0938-1.0938h-1.9062v-1c0-1.6534-1.3466-3-3-3zm0 1c1.1166 0 2 0.88335 2 2v1h-4v-1c0-1.1166 0.88335-2 2-2zm-2.5312 4c0.28679 0 0.53125 0.22386 0.53125 0.5s-0.24446 0.5-0.53125 0.5-0.5-0.22386-0.5-0.5 0.21321-0.5 0.5-0.5zm5 0c0.28679 0 0.53125 0.22386 0.53125 0.5s-0.24446 0.5-0.53125 0.5-0.5-0.22386-0.5-0.5 0.21321-0.5 0.5-0.5z" style="fill:url(#grad1)" class="ColorScheme-Text"/>
 </g>
</svg>
