<svg xmlns="http://www.w3.org/2000/svg" style="isolation:isolate" width="16" height="16" viewBox="0 0 16 16">
 <defs>
  <style id="current-color-scheme" type="text/css">
   .ColorScheme-Text { color:#5c616c; } .ColorScheme-Highlight { color:#5294e2; }
  </style>
  <linearGradient id="oomox" x1="0%" x2="0%" y1="0%" y2="100%">
   <stop offset="0%" style="stop-color:#f99f5e"/>
   <stop offset="100%" style="stop-color:#f95e6b"/>
  </linearGradient>
 </defs>
 <path style="fill:url(#oomox)" class="ColorScheme-Text" d="M 8 0 C 3.582 0 0 3.582 0 8 C 0 12.418 3.582 16 8 16 C 12.418 16 16 12.418 16 8 C 16 3.582 12.418 0 8 0 Z M 8 1.778 C 11.436 1.778 14.222 4.564 14.222 8 C 14.222 11.436 11.436 14.222 8 14.222 C 4.564 14.222 1.778 11.436 1.778 8 C 1.778 4.564 4.564 1.778 8 1.778 Z M 7.111 5.333 L 7.111 11.329 L 8.889 11.329 L 8.889 4.451 L 7.111 5.333 Z"/>
</svg>
