<svg xmlns="http://www.w3.org/2000/svg" style="enable-background:new" width="16" height="16" version="1.1">
<defs>
  <style id="current-color-scheme" type="text/css">
   .ColorScheme-Text { color:#5c616c; } .ColorScheme-Highlight { color:#5294e2; }
  </style>
  <linearGradient id="oomox" x1="0%" x2="0%" y1="0%" y2="100%">
   <stop offset="0%" style="stop-color:#f99f5e; stop-opacity:1"/>
   <stop offset="100%" style="stop-color:#f95e6b; stop-opacity:1"/>
  </linearGradient>
 </defs>
 <g transform="translate(-464.00001,-409)">
  <path d="m 471.5,410 c -3.58985,0 -6.5,2.91015 -6.5,6.5 0,3.58985 2.91015,6.5 6.5,6.5 3.58985,0 6.5,-2.91015 6.5,-6.5 0,-3.58985 -2.91015,-6.5 -6.5,-6.5 z m 0,1 c 3.03757,0 5.5,2.46243 5.5,5.5 0,3.03757 -2.46243,5.5 -5.5,5.5 -3.03757,0 -5.5,-2.46243 -5.5,-5.5 0,-3.03757 2.46243,-5.5 5.5,-5.5 z m -0.5,2 0,3 -2.25,0 0,1 2.25,0 1,0 0,-1 0,-3 z" style="fill:url(#oomox)" class="ColorScheme-Text"/>
 </g>
</svg>
