<svg xmlns="http://www.w3.org/2000/svg" style="isolation:isolate" width="16" height="16" viewBox="0 0 16 16">
 <defs>
  <style id="current-color-scheme" type="text/css">
   .ColorScheme-Text { color:#5c616c; } .ColorScheme-Highlight { color:#5294e2; }
  </style>
  <linearGradient id="oomox" x1="0%" x2="0%" y1="0%" y2="100%">
   <stop offset="0%" style="stop-color:#f99f5e"/>
   <stop offset="100%" style="stop-color:#f95e6b"/>
  </linearGradient>
 </defs>
 <path style="fill:url(#oomox)" class="ColorScheme-Text" d="M 14.222 3.111 C 14.222 3.467 14.08 3.804 13.831 4.053 C 13.582 4.302 13.244 4.444 12.889 4.444 C 12.533 4.444 12.196 4.302 11.947 4.053 C 11.698 3.804 11.556 3.467 11.556 3.111 L 11.556 2.667 L 4.444 2.667 L 4.444 3.764 L 14.222 10.876 L 14.222 16 L 1.778 16 L 1.778 12.889 C 1.778 12.533 1.92 12.196 2.169 11.947 C 2.418 11.698 2.756 11.556 3.111 11.556 C 3.467 11.556 3.804 11.698 4.053 11.947 C 4.302 12.196 4.444 12.533 4.444 12.889 L 4.444 13.333 L 11.556 13.333 L 11.556 12.236 L 1.778 5.124 L 1.778 0 L 14.222 0 L 14.222 3.111 Z"/>
</svg>
