<svg xmlns="http://www.w3.org/2000/svg" style="isolation:isolate" width="16" height="16" viewBox="0 0 16 16">
 <defs>
  <style id="current-color-scheme" type="text/css">
   .ColorScheme-Text { color:#5c616c; } .ColorScheme-Highlight { color:#5294e2; }
  </style>
  <linearGradient id="oomox" x1="0%" x2="0%" y1="0%" y2="100%">
   <stop offset="0%" style="stop-color:#f99f5e; stop-opacity:1"/>
   <stop offset="100%" style="stop-color:#f95e6b; stop-opacity:1"/>
  </linearGradient>
  <clipPath id="_clipPath_SdmqbNjW7EbT6sO2URWHE3vIdbVjDMoJ">
   <rect width="16" height="16"/>
  </clipPath>
 </defs>
 <g clip-path="url(#_clipPath_SdmqbNjW7EbT6sO2URWHE3vIdbVjDMoJ)">
  <rect style="fill:url(#oomox)" class="ColorScheme-Text" fill-opacity="0" width="16" height="16"/>
  <path style="fill:url(#oomox)" class="ColorScheme-Text" fill-rule="evenodd" d="M 0 0 L 0 1.778 L 1.778 1.778 L 1.778 0 L 0 0 L 0 0 L 0 0 L 0 0 L 0 0 Z M 1.778 1.778 L 1.778 3.556 L 3.556 3.556 L 3.556 1.778 L 1.778 1.778 L 1.778 1.778 L 1.778 1.778 L 1.778 1.778 L 1.778 1.778 Z M 12.444 3.556 L 14.222 3.556 L 14.222 1.778 L 12.444 1.778 L 12.444 3.556 L 12.444 3.556 L 12.444 3.556 L 12.444 3.556 L 12.444 3.556 Z M 14.222 1.778 L 16 1.778 L 16 0 L 14.222 0 L 14.222 1.778 L 14.222 1.778 L 14.222 1.778 L 14.222 1.778 L 14.222 1.778 Z M 0 11.556 L 0 16 L 8 16 L 16 16 L 16 11.556 L 8 11.556 L 0 11.556 L 0 11.556 L 0 11.556 L 0 11.556 L 0 11.556 Z M 3.556 7.111 L 5.333 7.111 L 5.333 8.889 L 3.556 8.889 L 3.556 7.111 L 3.556 7.111 L 3.556 7.111 Z M 3.556 3.556 L 3.556 5.333 L 1.778 5.333 L 1.778 7.111 L 0 7.111 L 0 9.778 L 8 9.778 L 16 9.778 L 16 7.111 L 14.222 7.111 L 14.222 5.333 L 12.444 5.333 L 12.444 3.556 L 8 3.556 L 3.556 3.556 L 3.556 3.556 L 3.556 3.556 L 3.556 3.556 L 3.556 3.556 Z M 10.667 7.111 L 12.444 7.111 L 12.444 8.889 L 10.667 8.889 L 10.667 7.111 Z"/>
 </g>
</svg>
