<svg xmlns="http://www.w3.org/2000/svg" style="isolation:isolate" width="16" height="16" viewBox="0 0 16 16">
 <defs>
  <style id="current-color-scheme" type="text/css">
   .ColorScheme-Text { color:#5c616c; } .ColorScheme-Highlight { color:#5294e2; }
  </style>
  <linearGradient id="grad1" x1="0%" x2="0%" y1="0%" y2="100%">
   <stop offset="0%" style="stop-color:#f99f5e"/>
   <stop offset="100%" style="stop-color:#f95e6b"/>
  </linearGradient>
 </defs>
 <path style="fill:url(#grad1)" class="ColorScheme-Text" fill-rule="evenodd" d="M 7.945 11.145 L 6.611 9.812 L 5.278 8.478 C 5.278 8.478 10.61 8.478 10.611 8.478 L 9.278 9.812 L 7.945 11.145 L 7.945 11.145 L 7.945 11.145 Z M 8 2.667 C 5.929 2.667 4.165 3.896 3.406 5.636 C 1.478 5.914 0 7.508 0 9.454 C 0 11.597 1.791 13.333 4 13.333 L 12.5 13.333 C 14.433 13.333 16 11.814 16 9.939 C 16 8.197 14.649 6.77 12.906 6.576 C 12.452 4.352 10.427 2.667 8 2.667 L 8 2.667 L 8 2.667 Z M 6.345 5.812 L 9.545 5.812 L 9.545 8.478 L 6.345 8.478 L 6.345 5.812 Z"/>
</svg>
