<svg xmlns="http://www.w3.org/2000/svg" style="isolation:isolate" width="16" height="16" viewBox="0 0 16 16">
 <defs>
  <style id="current-color-scheme" type="text/css">
   .ColorScheme-Text { color:#5c616c; } .ColorScheme-Highlight { color:#5294e2; }
  </style>
  <linearGradient id="grad1" x1="0%" x2="0%" y1="0%" y2="100%">
   <stop offset="0%" style="stop-color:#f99f5e"/>
   <stop offset="100%" style="stop-color:#f95e6b"/>
  </linearGradient>
 </defs>
 <path fill="#F55C0F" d="M 10.465 0.533 C 15.308 0.533 16 1.224 16 6.062 L 16 9.937 C 16 14.776 15.308 15.467 10.465 15.467 L 5.535 15.467 C 0.692 15.467 0 14.776 0 9.937 L 0 6.062 C 0 1.224 0.692 0.533 5.535 0.533 L 10.465 0.533 Z"/>
 <path fill="#FAF8F6" d="M 8 1.5 C 6.205 1.5 4.75 2.955 4.75 4.75 L 4.75 8 L 2.583 8 L 2.583 14.5 L 13.417 14.5 L 13.417 8 L 11.25 8 L 11.25 4.75 C 11.25 2.955 9.795 1.5 8 1.5 Z M 8 2.583 C 9.197 2.583 10.167 3.553 10.167 4.75 L 10.167 8 L 5.833 8 L 5.833 4.75 C 5.833 3.553 6.803 2.583 8 2.583 Z"/>
</svg>
