<svg xmlns="http://www.w3.org/2000/svg" width="16.015" height="16.079" version="1.1">
<defs>
  <style id="current-color-scheme" type="text/css">
   .ColorScheme-Text { color:#5c616c; } .ColorScheme-Highlight { color:#5294e2; }
  </style>
  <linearGradient id="grad1" x1="0%" x2="0%" y1="0%" y2="100%">
   <stop offset="0%" style="stop-color:#f99f5e; stop-opacity:1"/>
   <stop offset="100%" style="stop-color:#f95e6b; stop-opacity:1"/>
  </linearGradient>
 </defs>
 <g>
  <path style="solid-color:#5c616c;fill:url(#grad1)" d="M 0.5 0.578125 L 0.5 1.078125 L 0.5 1.578125 L 0.5 15.578125 L 15.5 15.578125 L 15.5 0.578125 L 1.5 0.578125 L 0.5 0.578125 z M 1.5 1.578125 L 4 1.578125 L 4 1.6230469 L 4 10.078125 L 4.5 10.078125 L 4.5 14.578125 L 1.5 14.578125 L 1.5 1.578125 z M 6 1.578125 L 10 1.578125 L 10 1.6230469 L 10 10.078125 L 10.5 10.078125 L 10.5 14.578125 L 5.5 14.578125 L 5.5 10.078125 L 6 10.078125 L 6 1.578125 z M 12 1.578125 L 14.5 1.578125 L 14.5 14.578125 L 11.5 14.578125 L 11.5 10.078125 L 12 10.078125 L 12 1.578125 z"/>
 </g>
</svg>
