<svg xmlns="http://www.w3.org/2000/svg" width="16" height="16" version="1.1">
<defs>
  <style id="current-color-scheme" type="text/css">
   .ColorScheme-Text { color:#5c616c; } .ColorScheme-Highlight { color:#5294e2; }
  </style>
  <linearGradient id="grad1" x1="0%" x2="0%" y1="0%" y2="100%">
   <stop offset="0%" style="stop-color:#f99f5e; stop-opacity:1"/>
   <stop offset="100%" style="stop-color:#f95e6b; stop-opacity:1"/>
  </linearGradient>
 </defs>
 <g label="status" transform="translate(-1072.9973,267.00014)" style="fill:url(#grad1)" class="ColorScheme-Text">
  <path d="m 1081.0002,-265 c -2.6669,0 -5.3334,1.01507 -7.3652,3.04688 l 0.7363,0.73828 c 3.6655,-3.66553 9.5923,-3.66553 13.2578,0 l 0.7363,-0.73828 c -2.0318,-2.03181 -4.6982,-3.04688 -7.3652,-3.04688 z m 0,2.98242 c -1.9205,0 -3.8404,0.73108 -5.3027,2.19336 l 0.7363,0.73633 c 2.5265,-2.5265 6.6063,-2.5265 9.1328,0 l 0.7363,-0.73633 c -1.4623,-1.46228 -3.3822,-2.19336 -5.3027,-2.19336 z m 0,2.99805 c -1.1741,0 -2.3475,0.44512 -3.2402,1.33789 l 0.7363,0.73828 c 1.3875,-1.38747 3.6203,-1.38746 5.0078,0 l 0.7363,-0.73828 c -0.8927,-0.89277 -2.0661,-1.33789 -3.2402,-1.33789 z m 0,3.01953 a 2,1.9999999 0 0 0 -2,2 2,1.9999999 0 0 0 2,2 2,1.9999999 0 0 0 2,-2 2,1.9999999 0 0 0 -2,-2 z" style="opacity:0.99999999; fill:url(#grad1)"/>
 </g>
</svg>
