<svg xmlns="http://www.w3.org/2000/svg" style="isolation:isolate" width="16" height="16" viewBox="0 0 16 16">
 <defs>
  <style id="current-color-scheme" type="text/css">
   .ColorScheme-Text { color:#5c616c; } .ColorScheme-Highlight { color:#5294e2; }
  </style>
  <linearGradient id="grad1" x1="0%" x2="0%" y1="0%" y2="100%">
   <stop offset="0%" style="stop-color:#f99f5e"/>
   <stop offset="100%" style="stop-color:#f95e6b"/>
  </linearGradient>
 </defs>
 <path style="fill:url(#grad1)" class="ColorScheme-Text" d="M 3.382 0 L 0.193 3.269 L 0.557 3.642 L 4.81 8 L 0.193 12.732 L 3.382 16 L 8 11.268 L 12.617 16 L 15.807 12.732 L 11.19 8 L 15.807 3.269 L 12.617 0 L 8 4.732 L 3.382 0 L 3.382 0 Z M 3.382 0.747 L 8 5.479 L 12.617 0.747 L 15.078 3.269 L 10.46 8 L 15.078 12.732 L 12.617 15.253 L 8 10.522 L 3.382 15.253 L 0.922 12.732 L 5.539 8 L 0.922 3.269 L 3.382 0.747 L 3.382 0.747 Z"/>
</svg>
