<svg xmlns="http://www.w3.org/2000/svg" width="16" height="16">
 <defs>
  <style id="current-color-scheme" type="text/css">
   .ColorScheme-Text { color:#5c616c; } .ColorScheme-Highlight { color:#5294e2; }
  </style>
  <linearGradient id="grad1" x1="0%" x2="0%" y1="0%" y2="100%">
   <stop offset="0%" style="stop-color:#f99f5e"/>
   <stop offset="100%" style="stop-color:#f95e6b"/>
  </linearGradient>
 </defs>
 <g  transform="translate(-552 -160)">
  <path style="fill:url(#grad1)" class="ColorScheme-Text" d="M555.994 161c-1.258.015-2.179-.03-2.932.385a1.88 1.88 0 0 0-.837.998c-.165.438-.225.96-.225 1.617v6c0 .658.06 1.179.225 1.617.164.439.461.79.837.998.753.416 1.674.37 2.932.385H564.006c1.258-.015 2.179.03 2.932-.385a1.88 1.88 0 0 0 .838-.998c.164-.438.224-.96.224-1.617v-6c0-.658-.06-1.179-.225-1.617a1.88 1.88 0 0 0-.837-.998c-.753-.416-1.674-.37-2.932-.385h-8.008zm.006 1h8c1.259.015 2.087.06 2.453.262.184.1.29.212.387.472.097.26.16.674.16 1.266v6c0 .592-.063 1.006-.16 1.266-.098.26-.203.371-.387.472-.366.202-1.194.247-2.453.262h-8c-1.259-.015-2.09-.06-2.455-.262-.183-.1-.287-.212-.385-.472-.097-.26-.16-.674-.16-1.266v-6c0-.592.063-1.006.16-1.266.098-.26.202-.371.385-.472.366-.202 1.196-.247 2.455-.262z" font-family="sans-serif" font-weight="400" overflow="visible"/>
  <path style="fill:url(#grad1)" class="ColorScheme-Text" d="M558 172h4v1.5c0 1.5.5 1.5 1.5 1.5h.5v1h-8v-1h.5c1 0 1.5 0 1.5-1.5z" overflow="visible"/>
  <path style="fill:url(#grad1)" class="ColorScheme-Text" fill-rule="evenodd" d="M552.502 163a.5.5 0 0 0-.502.5v5.5h1v-4.547L563.9 172h-7.318v1h8.918a.5.5 0 0 0 .285-.91l-13-9a.5.5 0 0 0-.283-.09z" font-family="sans-serif" font-weight="400" overflow="visible"/>
  <path style="fill:url(#grad1)" class="ColorScheme-Text" fill-rule="evenodd" d="M554.473 167a.5.5 0 0 0-.473.5v3a.5.5 0 0 0 .5.5h4a.5.5 0 0 0 .3-.9l-4-3a.5.5 0 0 0-.327-.1zm.527 1.5l1.998 1.5H555z" font-family="sans-serif" font-weight="400" overflow="visible"/>
 </g>
</svg>
