<svg xmlns="http://www.w3.org/2000/svg" style="isolation:isolate" width="16" height="16" viewBox="0 0 16 16">
 <defs>
  <style id="current-color-scheme" type="text/css">
   .ColorScheme-Text { color:#5c616c; } .ColorScheme-Highlight { color:#5294e2; }
  </style>
  <linearGradient id="grad1" x1="0%" x2="0%" y1="0%" y2="100%">
   <stop offset="0%" style="stop-color:#f99f5e"/>
   <stop offset="100%" style="stop-color:#f95e6b"/>
  </linearGradient>
 </defs>
 <path style="fill:url(#grad1)" class="ColorScheme-Text" fill-rule="evenodd" d="M 0 0.358 L 0 8.539 C 0 8.861 0.218 8.978 0.486 8.799 L 6.526 4.773 C 6.794 4.594 6.794 4.303 6.526 4.124 L 0.486 0.098 C 0.218 -0.081 0 0.036 0 0.358 L 0 0.358 Z M 3.679 8.786 L 3.679 15.642 C 3.679 15.964 3.897 16.081 4.165 15.902 L 9.211 12.538 C 9.48 12.359 9.48 12.069 9.211 11.89 L 4.165 8.526 C 3.897 8.347 3.679 8.463 3.679 8.786 L 3.679 8.786 Z M 11.698 5.724 L 11.698 10.671 C 11.698 10.994 11.916 11.11 12.184 10.932 L 15.799 8.522 C 16.067 8.343 16.067 8.053 15.799 7.874 L 12.184 5.464 C 11.916 5.285 11.698 5.402 11.698 5.724 Z"/>
</svg>
