<svg xmlns="http://www.w3.org/2000/svg" width="16" height="16" version="1.1">
<defs>
  <style id="current-color-scheme" type="text/css">
   .ColorScheme-Text { color:#5c616c; } .ColorScheme-Highlight { color:#5294e2; }
  </style>
  <linearGradient id="grad1" x1="0%" x2="0%" y1="0%" y2="100%">
   <stop offset="0%" style="stop-color:#f99f5e; stop-opacity:1"/>
   <stop offset="100%" style="stop-color:#f95e6b; stop-opacity:1"/>
  </linearGradient>
 </defs>
 <g transform="translate(-31.97559,-220.36218)">
  <path d="m 8.0244098,6.00002 a 3,3 0 0 1 -3,3 3,3 0 0 1 -3,-3 3,3 0 0 1 3,-3 3,3 0 0 1 3,3 z" transform="matrix(0.49737385,-0.91547058,0.91547058,0.49737385,35.89359,232.91345)" style="opacity:0.99999999;fill:url(#grad1)"/>
  <path style="opacity:0.99999999;fill:#888888" d="m 8.0244098,6.00002 a 3,3 0 0 1 -3,3 3,3 0 0 1 -3,-3 3,3 0 0 1 3,-3 3,3 0 0 1 3,3 z" transform="matrix(0.49737385,-0.91547058,0.91547058,0.49737385,28.176238,232.91607)"/>
  <path style="opacity:0.99999999;fill:#9c9c9c" d="m 8.0244098,6.00002 a 3,3 0 0 1 -3,3 3,3 0 0 1 -3,-3 3,3 0 0 1 3,-3 3,3 0 0 1 3,3 z" transform="matrix(0.49737385,-0.91547058,0.91547058,0.49737385,32.094699,226.09141)"/>
 </g>
</svg>
