<svg xmlns="http://www.w3.org/2000/svg" width="16" height="16" version="1.1">
<defs>
  <style id="current-color-scheme" type="text/css">
   .ColorScheme-Text { color:#5c616c; } .ColorScheme-Highlight { color:#5294e2; }
  </style>
  <linearGradient id="grad1" x1="0%" x2="0%" y1="0%" y2="100%">
   <stop offset="0%" style="stop-color:#f99f5e; stop-opacity:1"/>
   <stop offset="100%" style="stop-color:#f95e6b; stop-opacity:1"/>
  </linearGradient>
 </defs>
 <g transform="matrix(0.9375,0,0,0.9375,-52,-284.5)">
  <path d="m 56,304 v 0.5 7.5 h 8 v -8 z m 1,1 h 6 v 6 h -6 z" style="fill:url(#grad1)" class="ColorScheme-Text"/>
 </g>
 <g transform="matrix(0.9375,0,0,0.9375,-52,-277)">
  <path style="fill:url(#grad1)" class="ColorScheme-Text" d="m 56,304 v 0.5 7.5 h 8 v -8 z m 1,1 v 6 h 6 -6 z"/>
 </g>
 <g transform="matrix(0.9375,0,0,0.9375,-44.5,-284.5)">
  <path style="fill:url(#grad1)" class="ColorScheme-Text" d="m 56,304 v 0.5 7.5 h 8 v -8 z m 7,7 v -6 6 h -6 z"/>
 </g>
 <g transform="matrix(0.9375,0,0,0.9375,-44.5,-277)">
  <path d="m 56,304 v 0.5 7.5 h 8 v -8 z m 1,1 h 6 v 6 h -6 z" style="fill:url(#grad1)" class="ColorScheme-Text"/>
 </g>
</svg>
