<svg xmlns="http://www.w3.org/2000/svg" style="isolation:isolate" width="16" height="16" viewBox="0 0 16 16">
 <defs>
  <style id="current-color-scheme" type="text/css">
   .ColorScheme-Text { color:#5c616c; } .ColorScheme-Highlight { color:#5294e2; }
  </style>
  <linearGradient id="grad1" x1="0%" x2="0%" y1="0%" y2="100%">
   <stop offset="0%" style="stop-color:#f99f5e"/>
   <stop offset="100%" style="stop-color:#f95e6b"/>
  </linearGradient>
 </defs>
 <path style="fill:url(#grad1)" class="ColorScheme-Text" fill-rule="evenodd" d="M 14.35 8.581 L 13.03 8.581 L 13.03 13.531 L 11.38 13.531 L 11.38 8.581 L 11.38 8.581 L 11.38 6.931 L 11.38 6.931 L 11.38 2.31 L 11.38 2.31 L 13.03 2.31 L 13.03 6.931 L 13.03 6.931 L 13.03 6.931 L 14.35 6.931 L 14.35 2.31 L 16 2.31 L 16 13.531 L 14.35 13.531 L 14.35 8.581 Z M 7.261 12.04 L 7.261 8.581 L 7.261 8.581 L 7.261 8.581 L 7.261 8.581 L 10.39 8.581 L 10.39 6.931 L 7.261 6.931 L 7.261 3.96 L 10.39 3.96 L 10.39 2.31 L 5.769 2.31 L 5.769 2.469 L 5.769 2.469 L 5.61 2.469 L 5.61 2.469 L 5.61 13.69 L 5.61 13.69 L 5.61 13.69 L 10.231 13.69 L 10.231 12.04 L 7.261 12.04 L 7.261 12.04 Z M 1.65 8.739 L 1.65 13.69 L 0 13.69 L 0 4.119 L 0 4.119 L 0 2.469 L 0 2.469 L 0 2.469 L 1.65 2.469 L 1.65 2.469 L 4.62 2.469 L 4.62 4.119 L 1.65 4.119 L 1.65 7.089 L 4.62 7.089 L 4.62 8.739 L 1.65 8.739 L 1.65 8.739 L 1.65 8.739 L 1.65 8.739 L 1.65 8.739 L 1.65 8.739 L 1.65 8.739 Z"/>
</svg>
