<svg xmlns="http://www.w3.org/2000/svg" style="isolation:isolate" width="16" height="16" viewBox="0 0 16 16">
 <defs>
  <style id="current-color-scheme" type="text/css">
   .ColorScheme-Text { color:#5c616c; } .ColorScheme-Highlight { color:#5294e2; }
  </style>
  <linearGradient id="grad1" x1="0%" x2="0%" y1="0%" y2="100%">
   <stop offset="0%" style="stop-color:#f99f5e"/>
   <stop offset="100%" style="stop-color:#f95e6b"/>
  </linearGradient>
 </defs>
 <path style="fill:url(#grad1)" class="ColorScheme-Text" fill-rule="evenodd" d="M 10.465 0.533 C 15.308 0.533 16 1.224 16 6.063 L 16 9.938 C 16 14.776 15.308 15.467 10.465 15.467 L 5.535 15.467 C 0.692 15.467 0 14.776 0 9.938 L 0 6.063 C 0 1.224 0.692 0.533 5.535 0.533 L 10.465 0.533 Z M 6.669 13.827 L 4.471 13.827 L 4.471 2.431 L 12.107 2.431 L 12.107 4.515 L 6.669 4.515 L 6.669 6.908 L 10.12 6.908 L 10.12 8.992 L 6.669 8.992 L 6.669 13.827 Z"/>
</svg>
