<svg xmlns="http://www.w3.org/2000/svg" width="16" height="16" version="1.1" viewBox="0 0 4.23 4.23">
<defs>
  <style id="current-color-scheme" type="text/css">
   .ColorScheme-Text { color:#5c616c; } .ColorScheme-Highlight { color:#5294e2; }
  </style>
  <linearGradient id="grad1" x1="0%" x2="0%" y1="0%" y2="100%">
   <stop offset="0%" style="stop-color:#f99f5e; stop-opacity:1"/>
   <stop offset="100%" style="stop-color:#f95e6b; stop-opacity:1"/>
  </linearGradient>
 </defs>
<defs>
  <style id="current-color-scheme" type="text/css">
   .ColorScheme-Text { color:#5c616c; } .ColorScheme-Highlight { color:#5294e2; }
  </style>
  <linearGradient id="grad1" x1="0%" x2="0%" y1="0%" y2="100%">
   <stop offset="0%" style="stop-color:#f99f5e; stop-opacity:1"/>
   <stop offset="100%" style="stop-color:#f95e6b; stop-opacity:1"/>
  </linearGradient>
 </defs>>
 <g transform="translate(0,-292.76665)">
  <path d="m 2.9897918,293.71915 a 1.11125,1.11125 0 0 0 -1.1112501,1.11125 1.11125,1.11125 0 0 0 1.1112501,1.11125 1.11125,1.11125 0 0 0 1.1112499,-1.11125 1.11125,1.11125 0 0 0 -1.1112499,-1.11125 z m -2.0637502,0.3175 a 0.79375,0.79375 0 0 0 -0.79374993,0.79375 0.79375,0.79375 0 0 0 0.79374993,0.79375 0.79375,0.79375 0 0 0 0.7937501,-0.79375 0.79375,0.79375 0 0 0 -0.7937501,-0.79375 z m 2.0637502,0 a 0.79375,0.79375 0 0 1 0.79375,0.79375 0.79375,0.79375 0 0 1 -0.79375,0.79375 0.79375,0.79375 0 0 1 -0.7937501,-0.79375 0.79375,0.79375 0 0 1 0.7937501,-0.79375 z m -2.0637502,0.3175 a 0.47625001,0.47625001 0 0 1 0.4762502,0.47625 0.47625001,0.47625001 0 0 1 -0.4762502,0.47625 0.47625001,0.47625001 0 0 1 -0.47624993,-0.47625 0.47625001,0.47625001 0 0 1 0.47624993,-0.47625 z" style="fill:url(#grad1)" class="ColorScheme-Text"/>
 </g>
</svg>
