<svg xmlns="http://www.w3.org/2000/svg" style="isolation:isolate" width="16" height="16" viewBox="0 0 16 16">
 <defs>
  <style id="current-color-scheme" type="text/css">
   .ColorScheme-Text { color:#5c616c; } .ColorScheme-Highlight { color:#5294e2; }
  </style>
  <linearGradient id="grad1" x1="0%" x2="0%" y1="0%" y2="100%">
   <stop offset="0%" style="stop-color:#f99f5e"/>
   <stop offset="100%" style="stop-color:#f95e6b"/>
  </linearGradient>
 </defs>
 <path style="fill:url(#grad1)" class="ColorScheme-Text" fill-rule="evenodd" d="M 8.03125 15.949626 L 0.03125 12.984375 L 0.03125 2.578125 L 0.03125 2.546875 L 0.03125 2.546875 L 0.075593 2.564167 L 0.075593 2.564167 L 8.171875 0.015625 L 16 3.03125 L 15.99219 3.03393 L 15.99219 3.03393 L 16 13.03125 L 8.125 15.949632 L 8.125 15.984375 L 8.078129 15.967002 L 8.03125 15.984375 L 8.03125 15.949626 Z M 8.081635 5.686214 L 1.551696 3.13979 L 8.125 1.046875 L 14.386486 3.570161 L 8.081635 5.686214 Z M 1.03 4.01 L 7.13 6.39 L 7.13 14.55 L 1.03 12.29 L 1.03 4.01 L 1.03 4.01 L 1.03 4.01 Z M 10.109375 12 L 10.109375 13.328125 L 12.953125 12.359375 L 12.953125 11.03125 L 10.109375 12 L 10.109375 12 Z"/>
</svg>
