<svg xmlns="http://www.w3.org/2000/svg" style="isolation:isolate" width="16" height="16" viewBox="0 0 16 16">
 <defs>
  <style id="current-color-scheme" type="text/css">
   .ColorScheme-Text { color:#5c616c; } .ColorScheme-Highlight { color:#5294e2; }
  </style>
  <linearGradient id="grad1" x1="0%" x2="0%" y1="0%" y2="100%">
   <stop offset="0%" style="stop-color:#f99f5e"/>
   <stop offset="100%" style="stop-color:#f95e6b"/>
  </linearGradient>
 </defs>
 <path style="fill:url(#grad1)" class="ColorScheme-Text" d="M 6.711 0 C 3.977 1.578 3.04 5.074 4.619 7.808 C 5.003 8.474 5.503 9.031 6.076 9.473 L 4.889 14.222 L 2.074 14.222 L 2.074 16 L 4.444 16 L 11.556 16 L 13.926 16 L 13.926 14.222 L 11.111 14.222 L 10.212 10.628 C 10.97 10.542 11.724 10.306 12.427 9.9 L 9.988 5.677 L 10.328 5.161 L 10.725 4.561 C 11.009 4.776 11.395 4.8 11.704 4.622 C 12.129 4.376 12.274 3.832 12.029 3.407 C 11.783 2.982 11.24 2.837 10.815 3.082 C 10.48 3.276 10.308 3.664 10.391 4.042 L 9.706 4.083 L 9.09 4.12 L 6.711 0 Z"/>
</svg>
