<svg xmlns="http://www.w3.org/2000/svg" style="isolation:isolate" width="16" height="16" viewBox="0 0 16 16">
 <defs>
  <style id="current-color-scheme" type="text/css">
   .ColorScheme-Text { color:#5c616c; } .ColorScheme-Highlight { color:#5294e2; }
  </style>
  <linearGradient id="grad1" x1="0%" x2="0%" y1="0%" y2="100%">
   <stop offset="0%" style="stop-color:#f99f5e"/>
   <stop offset="100%" style="stop-color:#f95e6b"/>
  </linearGradient>
 </defs>
 <path style="fill:url(#grad1)" class="ColorScheme-Text" fill-rule="evenodd" d="M 4 3.429 L 2.286 3.429 L 2.286 11.429 L 4.571 11.429 L 5.714 12.571 L 5.714 12.571 L 10.286 12.571 L 11.429 11.429 L 13.714 11.429 L 13.714 3.429 L 12 3.429 L 12 4.571 L 12 4.571 L 10.857 4.571 L 10.857 3.429 L 10.286 3.429 L 10.286 4.571 L 10.286 4.571 L 10.286 4.571 L 9.143 4.571 L 9.143 3.429 L 8.571 3.429 L 8.571 4.571 L 8.571 4.571 L 8.571 4.571 L 8.571 4.571 L 7.429 4.571 L 7.429 3.429 L 6.857 3.429 L 6.857 4.571 L 6.857 4.571 L 6.857 4.571 L 6.857 4.571 L 6.857 4.571 L 5.714 4.571 L 5.714 3.429 L 5.143 3.429 L 5.143 4.571 L 5.143 4.571 L 5.143 4.571 L 5.143 4.571 L 5.143 4.571 L 4 4.571 L 4 3.429 Z M 4.571 14.857 L 3.429 13.714 L 1.143 13.714 C 0.51 13.714 0 13.205 0 12.571 L 0 2.286 C 0 1.653 0.51 1.143 1.143 1.143 L 14.857 1.143 C 15.49 1.143 16 1.653 16 2.286 L 16 12.571 C 16 13.205 15.49 13.714 14.857 13.714 L 12.571 13.714 L 11.429 14.857 L 4.571 14.857 L 4.571 14.857 Z"/>
</svg>
