<svg xmlns="http://www.w3.org/2000/svg" style="isolation:isolate" width="16" height="16" viewBox="0 0 16 16">
 <defs>
  <style id="current-color-scheme" type="text/css">
   .ColorScheme-Text { color:#5c616c; } .ColorScheme-Highlight { color:#5294e2; }
  </style>
  <linearGradient id="grad1" x1="0%" x2="0%" y1="0%" y2="100%">
   <stop offset="0%" style="stop-color:#f99f5e"/>
   <stop offset="100%" style="stop-color:#f95e6b"/>
  </linearGradient>
 </defs>
 <path style="fill:url(#grad1)" class="ColorScheme-Text" d="M 10.074 0 L 5.926 0.593 L 5.926 1.778 L 3.911 1.778 C 0.593 1.778 0.593 3.852 0.593 3.852 L 0.593 5.926 L 5.926 5.926 C 5.926 5.239 6.305 4.741 6.992 4.741 C 7.68 4.741 7.979 5.239 7.979 5.926 L 8.021 5.926 L 0.668 10.667 L 0.593 10.667 L 0.593 14.222 L 5.926 14.222 L 5.926 16 L 10.074 15.407 L 10.074 14.222 L 15.407 14.222 L 15.407 10.667 L 8 10.667 L 13.882 6.925 C 14.695 6.341 15.407 5.926 15.407 4.266 C 15.407 4.266 15.526 1.778 10.963 1.778 L 10.074 1.778 L 10.074 0 Z"/>
</svg>
