<svg xmlns="http://www.w3.org/2000/svg" style="isolation:isolate" width="16" height="16" viewBox="0 0 16 16">
 <defs>
  <style id="current-color-scheme" type="text/css">
   .ColorScheme-Text { color:#5c616c; } .ColorScheme-Highlight { color:#5294e2; }
  </style>
  <linearGradient id="grad1" x1="0%" x2="0%" y1="0%" y2="100%">
   <stop offset="0%" style="stop-color:#f99f5e"/>
   <stop offset="100%" style="stop-color:#f95e6b"/>
  </linearGradient>
 </defs>
 <path style="fill:url(#grad1)" class="ColorScheme-Text" d="M 1.474 0 L 1.474 1.263 L 13.263 1.263 L 13.263 0 L 1.474 0 Z M 1.474 2.947 L 1.474 4.211 L 14.526 4.211 L 14.526 2.947 L 1.474 2.947 Z M 1.474 5.895 L 1.474 7.158 L 13.263 7.158 L 13.263 5.895 L 1.474 5.895 Z M 1.474 8.842 L 1.474 10.105 L 10.737 10.105 L 10.737 8.842 L 1.474 8.842 Z M 1.474 11.789 L 1.474 13.053 L 13.263 13.053 L 13.263 11.789 L 1.474 11.789 Z M 1.474 14.737 L 1.474 16 L 10.737 16 L 10.737 14.737 L 1.474 14.737 Z"/>
</svg>
