<svg xmlns="http://www.w3.org/2000/svg" style="isolation:isolate" width="16" height="16" viewBox="0 0 16 16">
 <defs>
  <style id="current-color-scheme" type="text/css">
   .ColorScheme-Text { color:#5c616c; } .ColorScheme-Highlight { color:#5294e2; }
  </style>
  <linearGradient id="grad1" x1="0%" x2="0%" y1="0%" y2="100%">
   <stop offset="0%" style="stop-color:#f99f5e"/>
   <stop offset="100%" style="stop-color:#f95e6b"/>
  </linearGradient>
 </defs>
 <path style="fill:url(#grad1)" class="ColorScheme-Text" d="M 8 0 C 6.676 0.004 5.604 1.076 5.6 2.4 C 4.276 2.404 3.204 3.476 3.2 4.8 C 3.2 5.197 3.303 5.568 3.475 5.9 C 2.337 6.417 1.604 7.55 1.6 8.8 C 1.6 10.56 3.04 12 4.8 12 L 7.075 12 L 6.4 16 L 9.6 16 L 8.925 12 L 11.2 12 C 12.96 12 14.4 10.56 14.4 8.8 C 14.4 7.512 13.628 6.406 12.525 5.9 C 12.697 5.569 12.8 5.197 12.8 4.8 C 12.8 3.482 11.718 2.4 10.4 2.4 C 10.4 1.082 9.318 0 8 0 Z"/>
</svg>
