<svg xmlns="http://www.w3.org/2000/svg" style="isolation:isolate" width="16" height="16" viewBox="0 0 16 16">
 <defs>
  <style id="current-color-scheme" type="text/css">
   .ColorScheme-Text { color:#5c616c; } .ColorScheme-Highlight { color:#5294e2; }
  </style>
  <linearGradient id="grad1" x1="0%" x2="0%" y1="0%" y2="100%">
   <stop offset="0%" style="stop-color:#f99f5e"/>
   <stop offset="100%" style="stop-color:#f95e6b"/>
  </linearGradient>
 </defs>
 <g>
  <g opacity=".3">
   <rect fill="url(#grad1)" width="5.333" height="5.333" x="0" y=".05" transform="matrix(1,0,0,1,0,0)"/>
  </g>
  <g opacity=".6">
   <rect fill="url(#grad1)" width="5.333" height="5.333" x="0" y="5.38" transform="matrix(1,0,0,1,0,0)"/>
  </g>
  <g opacity=".4">
   <rect fill="url(#grad1)" width="5.333" height="5.333" x="5.33" y="5.38" transform="matrix(1,0,0,1,0,0)"/>
  </g>
  <g opacity=".2">
   <rect fill="url(#grad1)" width="5.333" height="5.333" x="10.67" y="5.38" transform="matrix(1,0,0,1,0,0)"/>
  </g>
  <g opacity=".7">
   <rect fill="url(#grad1)" width="5.333" height="5.333" x="0" y="10.72" transform="matrix(1,0,0,1,0,0)"/>
  </g>
  <g opacity=".6">
   <rect fill="url(#grad1)" width="5.333" height="5.333" x="5.33" y="10.72" transform="matrix(1,0,0,1,0,0)"/>
  </g>
  <g opacity=".6">
   <rect fill="url(#grad1)" width="5.333" height="5.333" x="10.67" y="10.72" transform="matrix(1,0,0,1,0,0)"/>
  </g>
 </g>
</svg>
