<svg xmlns="http://www.w3.org/2000/svg" style="enable-background:new" width="16" height="16.003" version="1.1">
<defs>
  <style id="current-color-scheme" type="text/css">
   .ColorScheme-Text { color:#5c616c; } .ColorScheme-Highlight { color:#5294e2; }
  </style>
  <linearGradient id="grad1" x1="0%" x2="0%" y1="0%" y2="100%">
   <stop offset="0%" style="stop-color:#f99f5e; stop-opacity:1"/>
   <stop offset="100%" style="stop-color:#f95e6b; stop-opacity:1"/>
  </linearGradient>
 </defs>
 <g transform="translate(-256,-75.996643)" style="fill:url(#grad1)" class="ColorScheme-Text">
  <path d="m 258,76 c 0,0 -2,-0.0034 -2,2 l 0,12 c 0,1.996643 2,2 2,2 l 12,0 c 0.0948,-0.0034 2,-0.0034 2,-2 l 0,-12 c 0,0 0,-2 -2,-2 z m 2.90625,3 6.1875,0 C 268.14981,79 269,79.85019 269,80.90625 l 0,0.1875 C 269,82.14981 268.14981,83 267.09375,83 l -6.1875,0 C 259.85019,83 259,82.14981 259,81.09375 l 0,-0.1875 C 259,79.85019 259.85019,79 260.90625,79 Z m 0.0937,1 c -0.55228,0 -1,0.447715 -1,1 0,0.552285 0.44772,1 1,1 0.55228,0 1,-0.447715 1,-1 0,-0.552285 -0.44772,-1 -1,-1 z m -0.0566,5 6.11328,0 c 1.07668,0 1.94336,0.86668 1.94336,1.94336 l 0,0.11328 c 0,1.07668 -0.86668,1.94336 -1.94336,1.94336 l -6.11328,0 c -1.07668,0 -1.94336,-0.86668 -1.94336,-1.94336 l 0,-0.11328 C 259,85.86668 259.86668,85 260.94335,85 Z m 6.05664,1 c -0.55228,0 -1,0.447715 -1,1 0,0.552285 0.44772,1 1,1 0.55228,0 1,-0.447715 1,-1 0,-0.552285 -0.44772,-1 -1,-1 z" style="fill:url(#grad1)" class="ColorScheme-Text"/>
 </g>
</svg>
