<svg xmlns="http://www.w3.org/2000/svg" style="isolation:isolate" width="16" height="16" viewBox="0 0 16 16">
 <defs>
  <style id="current-color-scheme" type="text/css">
   .ColorScheme-Text { color:#5c616c; } .ColorScheme-Highlight { color:#5294e2; }
  </style>
  <linearGradient id="grad1" x1="0%" x2="0%" y1="0%" y2="100%">
   <stop offset="0%" style="stop-color:#f99f5e"/>
   <stop offset="100%" style="stop-color:#f95e6b"/>
  </linearGradient>
 </defs>
 <path style="fill:url(#grad1)" class="ColorScheme-Text" fill-rule="evenodd" d="M 14.747 6.4 C 14.024 3.344 11.276 1.067 8 1.067 L 8 1.067 C 4.724 1.067 1.976 3.344 1.253 6.4 L 0 6.4 L 0 9.6 L 1.253 9.6 C 1.976 12.656 4.724 14.933 8 14.933 L 8 14.933 C 11.276 14.933 14.024 12.656 14.747 9.6 L 16 9.6 L 16 6.4 L 14.747 6.4 Z M 4.044 6.4 C 4.677 4.837 6.211 3.733 8 3.733 C 9.789 3.733 11.323 4.837 11.956 6.4 L 4.044 6.4 Z M 11.956 9.6 C 11.323 11.163 9.789 12.267 8 12.267 C 6.211 12.267 4.677 11.163 4.044 9.6 L 11.956 9.6 Z"/>
</svg>
