<svg xmlns="http://www.w3.org/2000/svg" width="16" height="16">
  <defs>
   <style id="current-color-scheme" type="text/css">
   .ColorScheme-Text { color:#5c616c; } .ColorScheme-Highlight { color:#5294e2; }
  </style>
  <linearGradient id="oomox" x1="0%" x2="0%" y1="0%" y2="100%">
   <stop offset="0%" style="stop-color:#f99f5e; stop-opacity:1"/>
   <stop offset="100%" style="stop-color:#f95e6b; stop-opacity:1"/>
  </linearGradient>
 </defs>
 <g transform="translate(-332 -80)">
  <path fill="url(#oomox)" class="ColorScheme-Text" d="M343 96l-.479-.922a19.554 19.554 0 0 1-1.126-2.666 14.225 14.225 0 0 1-.383-1.271l-.012-.057V81s0-1 1-1h2s1 0 1 1v10.084l-.012.057c-.028.122-.136.547-.383 1.271a19.588 19.588 0 0 1-1.126 2.666zm-.209-3.043h.416c.14-.315.294-.65.377-.893.225-.66.417-1.07.416-1.064h-2c-.002-.009.189.403.414 1.064.083.244.238.578.377.893zM342 83h2v-2h-2z"/>
  <path fill="url(#oomox)" class="ColorScheme-Text" d="M335 80v15h5V80zm1 1h3v1h-1v1h1v1h-1v1h1v1h-1v1h1v1h-1v1h1v1h-1v1h1v1h-1v1h1v1h-3z" overflow="visible"/>
 </g>
</svg>
