<svg xmlns="http://www.w3.org/2000/svg" width="16" height="16" version="1.1">
  <defs>
   <style id="current-color-scheme" type="text/css">
   .ColorScheme-Text { color:#5c616c; } .ColorScheme-Highlight { color:#5294e2; }
  </style>
  <linearGradient id="oomox" x1="0%" x2="0%" y1="0%" y2="100%">
   <stop offset="0%" style="stop-color:#f99f5e; stop-opacity:1"/>
   <stop offset="100%" style="stop-color:#f95e6b; stop-opacity:1"/>
  </linearGradient>
 </defs>
 <g transform="translate(-332,-60.000004)">
  <path fill="url(#oomox)" class="ColorScheme-Text" d="m 347,62.500004 c 0,-1.37479 -1.12521,-2.5 -2.5,-2.5 -1.37479,0 -2.5,1.12521 -2.5,2.5 0,1.37479 1.12521,2.5 2.5,2.5 1.37479,0 2.5,-1.12521 2.5,-2.5 z m 0,10 c 0,-1.37479 -1.12521,-2.5 -2.5,-2.5 -1.37479,0 -2.5,1.12521 -2.5,2.5 0,1.37479 1.12521,2.5 2.5,2.5 1.37479,0 2.5,-1.12521 2.5,-2.5 z m -1,-10 c 0,0.83435 -0.66565,1.5 -1.5,1.5 -0.83434,0 -1.5,-0.66565 -1.5,-1.5 0,-0.83435 0.66566,-1.5 1.5,-1.5 0.83435,0 1.5,0.66565 1.5,1.5 z m 0,10 c 0,0.83435 -0.66565,1.5 -1.5,1.5 -0.83434,0 -1.5,-0.66565 -1.5,-1.5 0,-0.83435 0.66566,-1.5 1.5,-1.5 0.83435,0 1.5,0.66565 1.5,1.5 z m -4.26562,-7.89062 c -0.2039,-0.26547 -0.37206,-0.55496 -0.49414,-0.8711 l -3.85352,2.14258 c -0.45943,-0.53398 -1.13147,-0.88086 -1.88672,-0.88086 -1.37479,0 -2.5,1.12521 -2.5,2.5 0,1.37479 1.12521,2.5 2.5,2.5 0.75525,0 1.42729,-0.34688 1.88672,-0.88086 l 3.85352,2.14258 c 0.12208,-0.31614 0.29024,-0.60561 0.49414,-0.8711 l -3.86133,-2.14453 c 0.0753,-0.23728 0.12695,-0.48475 0.12695,-0.74609 0,-0.26134 -0.0516,-0.50881 -0.12695,-0.74609 z M 337,67.500004 c 0,0.83435 -0.66565,1.5 -1.5,1.5 -0.83434,0 -1.5,-0.66565 -1.5,-1.5 0,-0.83435 0.66566,-1.5 1.5,-1.5 0.83435,0 1.5,0.66565 1.5,1.5 z" />
 </g>
</svg>
