<svg xmlns="http://www.w3.org/2000/svg" style="isolation:isolate" width="16" height="16" viewBox="0 0 16 16">
  <defs>
   <style id="current-color-scheme" type="text/css">
   .ColorScheme-Text { color:#5c616c; } .ColorScheme-Highlight { color:#5294e2; }
  </style>
  <linearGradient id="grad1" x1="0%" x2="0%" y1="0%" y2="100%">
   <stop offset="0%" style="stop-color:#f99f5e; stop-opacity:1"/>
   <stop offset="100%" style="stop-color:#f95e6b; stop-opacity:1"/>
  </linearGradient>

  <clipPath id="_clipPath_HTNQzLIqVpBpm9dOUo6PA1OzmSmGhvl5">
   <rect width="16" height="16"/>
  </clipPath>
 </defs>
 <g clip-path="url(#_clipPath_HTNQzLIqVpBpm9dOUo6PA1OzmSmGhvl5)">
  <rect style="fill:#000000" fill-opacity="0" width="16" height="16"/>
  <path fill="url(#grad1)" class="ColorScheme-Text" fill-rule="evenodd" d="M 8.553 10.3 L 7.242 10.3 L 6.829 6.012 L 6.829 2.653 L 8.966 2.653 L 8.966 6.012 L 8.553 10.3 L 8.553 10.3 L 8.553 10.3 Z M 8 0 C 3.582 0 0 3.582 0 8 C 0 12.418 3.582 16 8 16 C 12.418 16 16 12.418 16 8 C 16 3.582 12.418 0 8 0 L 8 0 L 8 0 Z M 8.885 12.922 L 8.885 12.922 L 8.885 12.922 Q 8.479 13.32 7.89 13.32 L 7.89 13.32 L 7.89 13.32 Q 7.301 13.32 6.918 12.93 L 6.918 12.93 L 6.918 12.93 Q 6.535 12.539 6.535 11.965 L 6.535 11.965 L 6.535 11.965 Q 6.535 11.39 6.918 10.992 L 6.918 10.992 L 6.918 10.992 Q 7.301 10.594 7.89 10.594 L 7.89 10.594 L 7.89 10.594 Q 8.479 10.594 8.885 10.992 L 8.885 10.992 L 8.885 10.992 Q 9.29 11.39 9.29 11.965 L 9.29 11.965 L 9.29 11.965 Q 9.29 12.524 8.885 12.922 Z"/>
 </g>
</svg>
