<svg width="376" height="135" viewBox="0 0 376 135" fill="none" xmlns="http://www.w3.org/2000/svg">
<path d="M25.6255 96C20.1503 96 15.4266 94.384 11.4544 91.1519C7.53584 87.86 4.71771 83.3412 3 77.5953L13.9504 73.0166C15.2387 76.0691 16.9296 78.523 19.0231 80.3785C21.1165 82.174 23.4247 83.0718 25.9476 83.0718C28.5778 83.0718 30.6445 82.5332 32.1475 81.4558C33.6505 80.3186 34.402 78.7026 34.402 76.6077C34.402 75.2311 33.8383 74.0041 32.7111 72.9268C31.6375 71.8494 30.4834 71.0714 29.2488 70.5925C28.0679 70.0539 26.216 69.3356 23.6931 68.4378C22.0291 67.8393 20.7676 67.3904 19.9088 67.0912C19.1036 66.732 17.9226 66.1934 16.366 65.4751C14.8093 64.7569 13.6284 64.0985 12.8232 63.5C12.018 62.9015 11.0518 62.0935 9.92454 61.076C8.79729 60.0585 7.93843 59.0111 7.34797 57.9337C6.81118 56.7965 6.32807 55.4498 5.89864 53.8936C5.46921 52.2776 5.2545 50.5718 5.2545 48.7762C5.2545 43.7486 7.02589 39.529 10.5687 36.1174C14.1115 32.7058 18.9157 31 24.9814 31C30.0272 31 34.2678 32.4664 37.7032 35.3992C41.1386 38.332 43.42 42.1027 44.5472 46.7113L33.5968 50.6616C31.8254 46.1727 28.7389 43.9282 24.3372 43.9282C19.7746 43.9282 17.4932 45.634 17.4932 49.0456C17.4932 49.8237 17.7079 50.512 18.1374 51.1105C18.5668 51.709 19.3451 52.3076 20.4724 52.9061C21.5996 53.5046 22.5122 53.9535 23.21 54.2528C23.9615 54.552 25.2498 55.0608 27.0748 55.779C29.0073 56.4972 30.4834 57.0658 31.5033 57.4848C32.5769 57.9038 34.0262 58.5622 35.8513 59.4599C37.6764 60.2979 39.0988 61.2256 40.1187 62.2431C41.1923 63.2007 42.2927 64.3679 43.42 65.7445C44.5472 67.1211 45.3524 68.7371 45.8355 70.5925C46.3723 72.448 46.6407 74.483 46.6407 76.6975C46.6407 82.6229 44.6546 87.3214 40.6824 90.7928C36.7102 94.2643 31.6912 96 25.6255 96Z" fill="url(#paint0_linear)"/>
<path d="M81.2709 94.9227V90.703C78.6944 94.2343 74.9369 96 69.9984 96C68.3344 96 66.724 95.7007 65.1674 95.1022C63.6107 94.5635 62.1077 93.6657 60.6584 92.4088C59.209 91.1519 58.0281 89.3564 57.1156 87.0221C56.2567 84.6879 55.8273 81.9646 55.8273 78.8522V49.0456H67.5024V72.9268C67.5024 76.5778 67.9855 79.2413 68.9517 80.9171C69.9179 82.593 71.6356 83.4309 74.1048 83.4309C76.574 83.4309 78.3723 82.593 79.4995 80.9171C80.6805 79.2413 81.2709 76.6377 81.2709 73.1064V49.0456H92.946V94.9227H81.2709Z" fill="url(#paint1_linear)"/>
<path d="M105.06 94.9227V49.0456H116.735V53.1754C117.271 51.9784 118.238 50.8112 119.633 49.674C121.029 48.5368 122.666 47.9682 124.545 47.9682C127.766 47.9682 130.476 49.2551 132.677 51.8287L131.147 63.6796C128.893 61.5847 126.45 60.5373 123.82 60.5373C119.097 60.5373 116.735 63.7095 116.735 70.0539V94.9227H105.06Z" fill="url(#paint2_linear)"/>
<path d="M165.249 94.9227V90.703C162.672 94.2343 158.914 96 153.976 96C152.312 96 150.702 95.7007 149.145 95.1022C147.588 94.5635 146.085 93.6657 144.636 92.4088C143.187 91.1519 142.006 89.3564 141.093 87.0221C140.234 84.6879 139.805 81.9646 139.805 78.8522V49.0456H151.48V72.9268C151.48 76.5778 151.963 79.2413 152.929 80.9171C153.896 82.593 155.613 83.4309 158.082 83.4309C160.552 83.4309 162.35 82.593 163.477 80.9171C164.658 79.2413 165.249 76.6377 165.249 73.1064V49.0456H176.924V94.9227H165.249Z" fill="url(#paint3_linear)"/>
<path d="M214.239 70.413V85.2265H202.564V70.413H189.44V57.7541H202.564V43.0304H214.239V57.7541H227.283V70.413H214.239Z" fill="url(#paint4_linear)"/>
<path d="M264.956 70.413V85.2265H253.281V70.413H240.157V57.7541H253.281V43.0304H264.956V57.7541H278V70.413H264.956Z" fill="url(#paint5_linear)"/>
<path d="M315.513 87.7759C346.689 101.627 351.119 93.5984 351.119 93.5984C351.119 93.5984 336.773 76.9119 324.679 71.2724C310.349 64.5904 288.653 61.7259 288.653 61.7259C288.653 61.7259 290.412 75.189 315.513 87.7759Z" fill="url(#paint6_linear)"/>
<path d="M306.908 51.0291C303.845 50.7623 295.11 58.4646 289.666 67.1969L305.464 85.4425L328.145 95.2344L347.275 95.8244C351.281 85.671 352.658 80.4971 344.418 69.7941C344.418 69.7941 309.972 51.2959 306.908 51.0291Z" fill="url(#paint7_linear)"/>
<path d="M292.913 133.298C292.913 133.298 284.434 93.4732 288.653 61.7259C296.686 79.3888 325.872 97.507 351.446 93.9471C332.864 114.881 292.913 133.298 292.913 133.298Z" fill="url(#paint8_linear)"/>
<path d="M310.92 46.4312L303.971 45.1508C303.971 45.1508 301.62 47.5287 299.684 48.2483C298.304 48.7612 296.895 47.7252 295.965 48.8665C295.14 49.8803 294.839 51.2816 295.779 52.2097C296.718 53.1377 303.432 55.9744 302.5 61.1262C301.567 66.278 310.872 63.5599 310.519 68.0998C307.966 73.574 298.325 79.9572 300 81.6202C301.674 83.2832 305.488 78.8872 308.353 74.6364C311.217 70.3856 312.89 70.0489 316.674 69.402C321.225 68.624 324.074 71.1867 327.939 72.9886C330.174 74.0312 328.138 77.3941 335.384 80.7726C342.629 84.1512 329.582 95.3166 332.442 96.7485C335.303 98.1804 337.85 91.0373 340.639 86.9475C343.428 82.8577 344.678 85.4122 347.389 85.2928C350.131 85.1719 351.043 83.7623 354.333 86.3747C359.392 80.9909 353.252 59.8985 353.252 59.8985L350.967 62.0671L348.247 65.7973L340.032 67.6511L327.704 58.5698L322.433 54.74L310.92 46.4312Z" fill="url(#paint9_linear)"/>
<path d="M308.054 34.2161C310.473 29.6595 316.493 27.4684 316.493 27.4684L317.432 25.4558L322.508 25.0787L322.831 29.6398L325.21 33.7871L330.32 37.5419L334.87 38.2918L336.728 42.2944L338.409 45.6263L345.843 51.5429L346.916 53.0237C346.916 53.0237 348.594 54.6912 349.047 55.3895C349.504 56.0923 349.772 57.1977 350.497 59.0058C351.483 59.566 352.176 58.8784 353.282 59.1284C356.261 61.9877 356.887 71.7861 356.887 71.7861C356.887 71.7861 355.587 71.5723 355.363 71.2714C353.829 69.2205 355.034 66.5117 353.772 63.9632C352.318 64.5593 352.137 68.101 347.227 68.7517C345.927 68.924 343.692 74.6501 334.251 67.9935C331.965 66.3814 333.204 64.5649 330.547 63.3261C326.764 61.5618 327.57 66.3481 325.396 65.3346C322.418 63.9456 324.898 62.5625 324.955 60.8164C324.983 59.9474 324.547 58.9598 323.618 58.4289C321.803 57.391 320.22 57.351 319.029 56.2891C318.207 55.5558 318.331 55.099 317.43 54.4651C316.919 54.1059 316.344 53.783 315.814 53.5158C314.332 52.7687 314.553 51.2914 313.146 50.4096C308.574 48.8655 305.441 53.4813 303.392 54.0936C302.922 54.234 302.587 53.7182 302.898 53.4713C303.942 52.6431 304.627 51.2228 304.984 49.8378C305.275 48.7086 305.621 47.9815 304.796 47.2997C304.159 46.7738 302.225 47.7673 302.225 47.7673C302.225 47.7673 299.504 45.6163 303.635 41.1719C303.226 37.845 306.741 37.0337 308.054 34.2161Z" fill="url(#paint10_linear)"/>
<path d="M317.155 24.1506C314.531 22.6328 313.653 26.6166 312.428 25.6706C310.578 24.2423 314.263 22.5278 315.507 20.5397C316.136 19.5329 315.975 18.3848 316.445 17.0568C317.034 15.3889 316.885 14.3863 317.882 12.9244C319.69 10.2709 323.988 10.9694 325.639 7.42722C327.291 3.88509 334.115 -0.871319 338.538 2.46511C342.961 5.80154 345.81 5.36605 349.234 5.59041C352.657 5.81477 357.735 9.84861 359.319 12.5473C360.903 15.246 367.398 16.3256 370.118 20.9153C373.45 26.5383 372.499 33.8845 371.25 37.6144C370 41.3442 368.021 44.5376 367.61 49.8341C367.512 51.0963 366.609 51.5542 365.775 52.507C364.905 53.5011 363.254 54.7615 363.254 54.7615C363.254 54.7615 361.72 58.2607 359.037 58.9698C356.726 64.5567 355.948 63.7037 355.6 65.5014C355.112 68.0183 356.191 69.6976 354.072 72.1398C353.332 72.6766 352.601 72.5483 351.722 71.9258C349.29 70.204 352.278 67.0051 351.746 64.0966C351.139 60.7752 350.053 55.9567 347.462 57.1005C346.249 57.6356 345.793 57.1063 345.197 54.182C344.93 52.8765 343.891 52.6868 343.398 52.3634C342.198 51.5756 343.001 50.9039 341.6 50.5448C339.674 49.8424 339.732 49.0857 338.225 49.1667C336.722 49.4462 336.649 55.4884 334.401 56.1062C333.37 56.2138 332.375 55.241 332.683 54.3252C335.991 44.4988 333.26 46.3616 332.84 42.6377C332.421 38.9137 329.791 37.1973 326.249 35.5456C322.707 33.8939 323.717 40.3437 319.692 38.4667C317.679 37.528 321.532 34.522 320.457 31.571C319.816 29.8081 318.924 29.5623 318.052 27.9013C317.352 26.5679 318.45 24.8998 317.155 24.1506Z" fill="url(#paint11_linear)"/>
<defs>
<linearGradient id="paint0_linear" x1="140.5" y1="31" x2="140.5" y2="96" gradientUnits="userSpaceOnUse">
<stop stop-color="#49535E"/>
<stop offset="1" stop-color="#2F3943"/>
</linearGradient>
<linearGradient id="paint1_linear" x1="140.5" y1="31" x2="140.5" y2="96" gradientUnits="userSpaceOnUse">
<stop stop-color="#49535E"/>
<stop offset="1" stop-color="#2F3943"/>
</linearGradient>
<linearGradient id="paint2_linear" x1="140.5" y1="31" x2="140.5" y2="96" gradientUnits="userSpaceOnUse">
<stop stop-color="#49535E"/>
<stop offset="1" stop-color="#2F3943"/>
</linearGradient>
<linearGradient id="paint3_linear" x1="140.5" y1="31" x2="140.5" y2="96" gradientUnits="userSpaceOnUse">
<stop stop-color="#49535E"/>
<stop offset="1" stop-color="#2F3943"/>
</linearGradient>
<linearGradient id="paint4_linear" x1="140.5" y1="31" x2="140.5" y2="96" gradientUnits="userSpaceOnUse">
<stop stop-color="#49535E"/>
<stop offset="1" stop-color="#2F3943"/>
</linearGradient>
<linearGradient id="paint5_linear" x1="140.5" y1="31" x2="140.5" y2="96" gradientUnits="userSpaceOnUse">
<stop stop-color="#49535E"/>
<stop offset="1" stop-color="#2F3943"/>
</linearGradient>
<linearGradient id="paint6_linear" x1="315.231" y1="87.6445" x2="323.189" y2="70.5779" gradientUnits="userSpaceOnUse">
<stop stop-color="#037164"/>
<stop offset="1" stop-color="#00AC98"/>
</linearGradient>
<linearGradient id="paint7_linear" x1="299.059" y1="47.0548" x2="285.5" y2="76.1328" gradientUnits="userSpaceOnUse">
<stop offset="1e-07" stop-color="#EC57FF"/>
<stop offset="0.5" stop-color="#C551FF"/>
<stop offset="1" stop-color="#A90FF5"/>
</linearGradient>
<linearGradient id="paint8_linear" x1="320.613" y1="76.629" x2="293.96" y2="133.786" gradientUnits="userSpaceOnUse">
<stop stop-color="#31C6B7"/>
<stop offset="1" stop-color="#2B898F"/>
</linearGradient>
<linearGradient id="paint9_linear" x1="301.867" y1="35.937" x2="284.003" y2="74.2455" gradientUnits="userSpaceOnUse">
<stop offset="1e-07" stop-color="#1F5DD1"/>
<stop offset="1" stop-color="#007FFF"/>
</linearGradient>
<linearGradient id="paint10_linear" x1="312.64" y1="20.4773" x2="297.737" y2="52.437" gradientUnits="userSpaceOnUse">
<stop offset="1e-07" stop-color="#00FF99"/>
<stop offset="1" stop-color="#14DC57"/>
</linearGradient>
<linearGradient id="paint11_linear" x1="326.047" y1="-5.72437" x2="300.861" y2="48.2856" gradientUnits="userSpaceOnUse">
<stop offset="1e-07" stop-color="#FFEC57"/>
<stop offset="0.5" stop-color="#FFC551"/>
<stop offset="1" stop-color="#F5A90F"/>
</linearGradient>
</defs>
</svg>
