<svg xmlns="http://www.w3.org/2000/svg" width="16" height="16">
 <defs>
  <style id="current-color-scheme" type="text/css">
   .ColorScheme-Text { color:#5c616c; } .ColorScheme-Highlight { color:#5294e2; }
  </style>
  <linearGradient id="oomox" x1="0%" x2="0%" y1="0%" y2="100%">
   <stop offset="0%" style="stop-color:#f99f5e; stop-opacity:1"/>
   <stop offset="100%" style="stop-color:#f95e6b; stop-opacity:1"/>
  </linearGradient>
  <clipPath id="_clipPath_Pq8gi0UFH0yVcqOiKSjNhmu1ToEQ47bH">
   <rect width="16" height="16"/>
  </clipPath>
 </defs>
 <g transform="translate(-652 -100)">
  <path style="fill:url(#oomox)" class="ColorScheme-Text" d="M657 113v-10h6v10z" overflow="visible"/>
  <path style="fill:url(#oomox)" class="ColorScheme-Text" d="M655 112.338c.01.839-.015 1.451.262 1.953.138.251.373.45.666.56.292.11.64.149 1.078.149H663c.438 0 .786-.039 1.078-.148.293-.11.526-.31.664-.56.277-.503.248-1.115.258-1.954v-8.707c-.01-.839.019-1.453-.258-1.955a1.25 1.25 0 0 0-.664-.559c-.292-.11-.64-.117-1.078-.117h-1v-1h-4v1h-.994c-.438 0-.786.007-1.078.117-.293.11-.528.308-.666.559-.277.502-.252 1.116-.262 1.955v8.705zm1-.014v-8.691c.01-.853.04-1.298.137-1.475.016-.028.057-.073.142-.105.062-.023.3-.053.727-.053H663c.427 0 .664.03.727.053.085.032.124.077.14.105.095.173.123.618.133 1.475v8.705c-.01.854-.038 1.298-.133 1.47-.016.03-.055.074-.14.106-.123.046-.349.086-.727.086h-5.994c-.378 0-.604-.04-.727-.086-.085-.032-.126-.077-.142-.105-.098-.178-.127-.62-.137-1.485z" overflow="visible"/>
 </g>
</svg>
