<svg xmlns="http://www.w3.org/2000/svg" width="16" height="16">
 <defs>
  <style id="current-color-scheme" type="text/css">
   .ColorScheme-Text { color:#5c616c; } .ColorScheme-Highlight { color:#5294e2; }
  </style>
  <linearGradient id="grad1" x1="0%" x2="0%" y1="0%" y2="100%">
   <stop offset="0%" style="stop-color:#f99f5e; stop-opacity:1"/>
   <stop offset="100%" style="stop-color:#f95e6b; stop-opacity:1"/>
  </linearGradient>
  <clipPath id="_clipPath_Pq8gi0UFH0yVcqOiKSjNhmu1ToEQ47bH">
   <rect width="16" height="16"/>
  </clipPath>
 </defs>
 <g transform="translate(-672 -60)">
  <path style="fill:url(#grad1)" class="ColorScheme-Text" d="M679.852 66h3.693l-4.338 6.241 1.672.174-4.184 3.578 1.964-1.036c.318.038 1.01.064 1.337.064A7.005 7.005 0 0 0 687 68.015c-.016-2.468-1.28-5.007-4.003-6.33l.16-1.676zM673 68.015a6.99 6.99 0 0 0 3.581 6.114l.319-3.72 1.01 1.206L679.715 68H676l3.16-6.934a6.999 6.999 0 0 0-6.16 6.95"/>
 </g>
</svg>
