<svg xmlns="http://www.w3.org/2000/svg" xmlns:xlink="http://www.w3.org/1999/xlink" style="isolation:isolate" width="16" height="16" viewBox="0 0 16 16">
 <defs>
   <style id="current-color-scheme" type="text/css">
   .ColorScheme-Text { color:#5c616c; } .ColorScheme-Highlight { color:#5294e2; }
  </style>
  <linearGradient id="grad1" x1="0%" x2="0%" y1="0%" y2="100%">
   <stop offset="0%" style="stop-color:#f99f5e; stop-opacity:1"/>
   <stop offset="100%" style="stop-color:#f95e6b; stop-opacity:1"/>
  </linearGradient>
 </defs>
    <path style="fill:url(#grad1);" class="ColorScheme-Text" d="M 16 0.857143 C 14.285714 2.571429 13.142857 4.285714 10.344001 5.093143 C 9.997713 2.98 8.158286 1.428571 6 1.428571 C 3.569714 1.428571 1.6 3.382857 1.6 5.793714 C 1.602286 5.976 1.615428 6.158286 1.640572 6.33943 C 0.646857 6.901714 0 7.913714 0 9.587429 C 0 12.388 2.729715 15.142857 5.840572 15.142857 C 11.993142 15.142857 16 8.794285 16 0.857143 Z M 6 3.396572 C 7.325714 3.396572 8.4 4.462286 8.4 5.777714 C 8.4 7.092571 7.325714 8.158857 6 8.158857 C 4.674286 8.158857 3.6 7.093142 3.6 5.777714 C 3.6 4.462857 4.674286 3.396572 6 3.396572 Z M 11.840572 9.233715 C 11.840572 9.674857 9.066857 13.158286 6.4 13.158286 C 3.954857 13.158286 2.559429 11.517713 2.559429 9.813143 C 5.226286 12.407429 9.600571 10.696572 11.840572 9.233143 L 11.840572 9.233715 Z"/>
    <ellipse style="fill:url(#grad1);" class="ColorScheme-Text" cx="6.937" cy="4.787" rx="1.223" ry="1.213" vector-effect="non-scaling-stroke"/>
</svg>
