<svg xmlns="http://www.w3.org/2000/svg" xmlns:xlink="http://www.w3.org/1999/xlink" style="isolation:isolate" width="16" height="16" viewBox="0 0 16 16">
 <defs>
   <style id="current-color-scheme" type="text/css">
   .ColorScheme-Text { color:#5c616c; } .ColorScheme-Highlight { color:#5294e2; }
  </style>
  <linearGradient id="oomox" x1="0%" x2="0%" y1="0%" y2="100%">
   <stop offset="0%" style="stop-color:#f99f5e; stop-opacity:1"/>
   <stop offset="100%" style="stop-color:#f95e6b; stop-opacity:1"/>
  </linearGradient>
 </defs>
   <path style="fill:url(#oomox);" class="ColorScheme-Text" d="M 7.999998 -0.000002 C 3.585874 -0.000002 0 3.585874 0 7.999993 C 0 12.414118 3.585874 16.000016 7.999998 16.000002 C 12.414124 16.000002 16.000004 12.414118 16 7.999993 C 16 3.585874 12.414124 -0.000002 7.999998 -0.000002 Z M 3.907498 5.440625 C 4.843047 5.415725 5.77094 6.051621 6.156875 7.070624 C 6.631868 8.324782 6.107516 9.688701 4.986875 10.113131 C 3.866233 10.537561 2.569992 9.863531 2.094998 8.609388 C 1.620003 7.355216 2.144356 5.991297 3.264998 5.566881 C 3.475118 5.487295 3.691601 5.446392 3.907498 5.440625 Z M 12.230626 5.440625 C 12.446519 5.44668 12.66238 5.48731 12.872502 5.566881 C 13.993142 5.991297 14.51812 7.355216 14.043127 8.609388 C 13.568134 9.863531 12.271891 10.537561 11.151249 10.113131 C 10.030609 9.688701 9.505628 8.324782 9.980625 7.070624 C 10.366557 6.051621 11.295077 5.415668 12.230626 5.440625 Z"/>
</svg>
