<svg xmlns="http://www.w3.org/2000/svg" xmlns:xlink="http://www.w3.org/1999/xlink" style="isolation:isolate" width="16" height="16" viewBox="0 0 16 16">
 <defs>
   <style id="current-color-scheme" type="text/css">
   .ColorScheme-Text { color:#5c616c; } .ColorScheme-Highlight { color:#5294e2; }
  </style>
  <linearGradient id="oomox" x1="0%" x2="0%" y1="0%" y2="100%">
   <stop offset="0%" style="stop-color:#f99f5e; stop-opacity:1"/>
   <stop offset="100%" style="stop-color:#f95e6b; stop-opacity:1"/>
  </linearGradient>
 </defs>
   <path style="fill:url(#oomox);" class="ColorScheme-Text" fill-rule="evenodd" d="M 3.73 1 L 12.27 1 C 13.776728 1 15 2.223272 15 3.73 L 15 12.27 C 15 13.776728 13.776728 15 12.27 15 L 3.73 15 C 2.223272 15 1 13.776728 1 12.27 L 1 3.73 C 1 2.223272 2.223272 1 3.73 1 Z M 3.73 3 L 12.27 3 C 12.46 3 12.65 3.08 12.79 3.21 C 12.92 3.35 13 3.54 13 3.73 L 13 12.27 C 13 12.46 12.92 12.65 12.79 12.79 C 12.65 12.92 12.46 13 12.27 13 L 3.73 13 C 3.54 13 3.35 12.92 3.21 12.79 C 3.08 12.65 3 12.46 3 12.27 L 3 3.73 C 3 3.54 3.08 3.35 3.21 3.21 C 3.35 3.08 3.54 3 3.73 3 Z"/>
</svg>
