<svg xmlns="http://www.w3.org/2000/svg" xmlns:xlink="http://www.w3.org/1999/xlink" style="isolation:isolate" width="16" height="16" viewBox="0 0 16 16">
 <defs>
   <style id="current-color-scheme" type="text/css">
   .ColorScheme-Text { color:#5c616c; } .ColorScheme-Highlight { color:#5294e2; }
  </style>
  <linearGradient id="oomox" x1="0%" x2="0%" y1="0%" y2="100%">
   <stop offset="0%" style="stop-color:#f99f5e; stop-opacity:1"/>
   <stop offset="100%" style="stop-color:#f95e6b; stop-opacity:1"/>
  </linearGradient>
 </defs>
    <path style="fill:url(#oomox);" class="ColorScheme-Text" d="M 5.760159 11.519874 L 5.760159 15.999805 L 10.240089 15.999805 L 10.240089 11.519874 L 5.760159 11.519874 Z M 6.400149 12.159864 L 9.600099 12.159864 L 9.600099 15.359815 L 6.400149 15.359815 L 6.400149 12.159864 Z"/>
    <path style="fill:url(#oomox);" class="ColorScheme-Text" d="M 0.000248 5.759964 L 0.000248 10.239894 L 4.480178 10.239894 L 4.480178 5.759964 L 0.000248 5.759964 Z M 0.640238 6.399954 L 3.840188 6.399954 L 3.840188 9.599904 L 0.640238 9.599904 L 0.640238 6.399954 Z"/>
    <path style="fill:url(#oomox);" class="ColorScheme-Text" d="M 5.760159 0.000053 L 5.760159 4.479983 L 10.240089 4.479983 L 10.240089 0.000053 L 5.760159 0.000053 Z M 6.400149 0.640043 L 9.600099 0.640043 L 9.600099 3.839993 L 6.400149 3.839993 L 6.400149 0.640043 Z"/>
    <path style="fill:url(#oomox);" class="ColorScheme-Text" d="M 5.759911 5.759964 L 5.759911 10.240036 L 10.239985 10.240036 L 10.239985 5.759964 L 5.759911 5.759964 Z"/>
    <path style="fill:url(#oomox);" class="ColorScheme-Text" d="M 11.520069 5.759964 L 11.520069 10.239894 L 16 10.239894 L 16 5.759964 L 11.520069 5.759964 Z M 12.16006 6.399954 L 15.36001 6.399954 L 15.36001 9.599904 L 12.16006 9.599904 L 12.16006 6.399954 Z"/>
    <path style="fill:url(#oomox);" class="ColorScheme-Text" d="M 11.519821 11.519875 L 11.519821 15.999947 L 15.999896 15.999947 L 15.999896 11.519875 L 11.519821 11.519875 Z"/>
    <path style="fill:url(#oomox);" class="ColorScheme-Text" d="M 0 11.519875 L 0 15.999947 L 4.480074 15.999947 L 4.480074 11.519875 L 0 11.519875 Z"/>
    <path style="fill:url(#oomox);" class="ColorScheme-Text" d="M 0 0.000053 L 0 4.480126 L 4.480074 4.480126 L 4.480074 0.000053 L 0 0.000053 Z"/>
</svg>
