<svg xmlns="http://www.w3.org/2000/svg" xmlns:xlink="http://www.w3.org/1999/xlink" style="isolation:isolate" width="16" height="16" viewBox="0 0 16 16">
 <defs>
   <style id="current-color-scheme" type="text/css">
   .ColorScheme-Text { color:#5c616c; } .ColorScheme-Highlight { color:#5294e2; }
  </style>
  <linearGradient id="grad1" x1="0%" x2="0%" y1="0%" y2="100%">
   <stop offset="0%" style="stop-color:#f99f5e; stop-opacity:1"/>
   <stop offset="100%" style="stop-color:#f95e6b; stop-opacity:1"/>
  </linearGradient>
 </defs>
   <path style="fill:url(#grad1);" class="ColorScheme-Text" fill-rule="evenodd" d="M 3.428571 13.142857 L 3.428571 14.285714 L 16 14.285714 L 16 13.142857 L 3.428571 13.142857 L 3.428571 13.142857 L 3.428571 13.142857 L 3.428571 13.142857 L 3.428571 13.142857 L 3.428571 13.142857 L 3.428571 13.142857 Z M 3.428571 1.714286 L 3.428571 2.857143 L 16 2.857143 L 16 1.714286 L 3.428571 1.714286 L 3.428571 1.714286 L 3.428571 1.714286 L 3.428571 1.714286 L 3.428571 1.714286 L 3.428571 1.714286 L 3.428571 1.714286 L 3.428571 1.714286 L 3.428571 1.714286 L 3.428571 1.714286 L 3.428571 1.714286 Z M 3.428571 6.285714 L 3.428571 7.428571 L 16 7.428571 L 16 6.285714 L 3.428571 6.285714 L 3.428571 6.285714 L 3.428571 6.285714 L 3.428571 6.285714 L 3.428571 6.285714 L 3.428571 6.285714 L 3.428571 6.285714 L 3.428571 6.285714 L 3.428571 6.285714 L 3.428571 6.285714 Z M 3.428571 8.571429 L 3.428571 9.714286 L 16 9.714286 L 16 8.571429 L 3.428571 8.571429 L 3.428571 8.571429 L 3.428571 8.571429 L 3.428571 8.571429 L 3.428571 8.571429 L 3.428571 8.571429 L 3.428571 8.571429 L 3.428571 8.571429 L 3.428571 8.571429 Z M 3.428571 10.857143 L 3.428571 12 L 16 12 L 16 10.857143 L 3.428571 10.857143 L 3.428571 10.857143 L 3.428571 10.857143 L 3.428571 10.857143 L 3.428571 10.857143 L 3.428571 10.857143 L 3.428571 10.857143 L 3.428571 10.857143 Z M 3.428571 4 L 3.428571 5.142857 L 16 5.142857 L 16 4 L 3.428571 4 L 3.428571 4 L 3.428571 4 L 3.428571 4 L 3.428571 4 L 3.428571 4 L 3.428571 4 L 3.428571 4 L 3.428571 4 L 3.428571 4 L 3.428571 4 Z M 0 1.714286 L 2.285714 1.714286 L 2.285714 2.857143 L 0 2.857143 L 0 1.714286 L 0 1.714286 L 0 1.714286 L 0 1.714286 L 0 1.714286 L 0 1.714286 Z M 0 4 L 2.285714 4 L 2.285714 5.142857 L 0 5.142857 L 0 4 L 0 4 L 0 4 L 0 4 L 0 4 Z M 0 6.285714 L 2.285714 6.285714 L 2.285714 7.428571 L 0 7.428571 L 0 6.285714 L 0 6.285714 L 0 6.285714 L 0 6.285714 Z M 0 8.571429 L 2.285714 8.571429 L 2.285714 9.714286 L 0 9.714286 L 0 8.571429 L 0 8.571429 L 0 8.571429 Z M 0 10.857143 L 2.285714 10.857143 L 2.285714 12 L 0 12 L 0 10.857143 L 0 10.857143 Z M 0 13.142857 L 2.285714 13.142857 L 2.285714 14.285714 L 0 14.285714 L 0 13.142857 Z"/>
</svg>
