<svg xmlns="http://www.w3.org/2000/svg" xmlns:xlink="http://www.w3.org/1999/xlink" style="isolation:isolate" width="16" height="16" viewBox="0 0 16 16">
 <defs>
   <style id="current-color-scheme" type="text/css">
   .ColorScheme-Text { color:#5c616c; } .ColorScheme-Highlight { color:#5294e2; }
  </style>
  <linearGradient id="oomox" x1="0%" x2="0%" y1="0%" y2="100%">
   <stop offset="0%" style="stop-color:#f99f5e; stop-opacity:1"/>
   <stop offset="100%" style="stop-color:#f95e6b; stop-opacity:1"/>
  </linearGradient>
 </defs>
   <path style="fill:url(#oomox);" class="ColorScheme-Text" fill-rule="evenodd" d="M 14.166354 2.576802 L 10.693835 6.986835 L 9.065413 5.011912 L 5.434065 9.708255 L 3.81233 7.852874 L 0 12.610241 L 0.490282 12.862279 L 3.833647 8.69091 L 5.464577 10.555904 L 9.08255 5.877952 L 10.706793 7.846605 L 14.204807 3.402299 L 15.531871 4.839708 L 16 4.562173 L 14.16719 2.576802 L 14.166354 2.576802 L 14.166354 2.576802 L 14.166354 2.576802 L 14.166354 2.576802 L 14.166354 2.576802 L 14.166354 2.576802 L 14.166354 2.576802 Z M 1.004389 2.973877 L 3.094253 2.973877 L 3.094253 4.227795 L 1.004389 4.227795 L 1.004389 2.973877 L 1.004389 2.973877 L 1.004389 2.973877 L 1.004389 2.973877 L 1.004389 2.973877 L 1.004389 2.973877 L 1.004389 2.973877 Z M 1.004389 4.645768 L 3.094253 4.645768 L 3.094253 5.899687 L 1.004389 5.899687 L 1.004389 4.645768 L 1.004389 4.645768 L 1.004389 4.645768 L 1.004389 4.645768 L 1.004389 4.645768 L 1.004389 4.645768 Z M 3.512226 2.973877 L 6.438036 2.973877 L 6.438036 4.227795 L 3.512226 4.227795 L 3.512226 2.973877 L 3.512226 2.973877 L 3.512226 2.973877 L 3.512226 2.973877 L 3.512226 2.973877 Z M 3.512226 4.645768 L 6.438036 4.645768 L 6.438036 5.899687 L 3.512226 5.899687 L 3.512226 4.645768 L 3.512226 4.645768 L 3.512226 4.645768 L 3.512226 4.645768 Z M 13.543574 6.735632 L 15.215465 6.735632 L 15.215465 13.423198 L 13.543574 13.423198 L 13.543574 6.735632 L 13.543574 6.735632 L 13.543574 6.735632 Z M 10.199791 9.243469 L 11.871683 9.243469 L 11.871683 13.423198 L 10.199791 13.423198 L 10.199791 9.243469 L 10.199791 9.243469 Z M 6.856009 11.333334 L 8.5279 11.333334 L 8.5279 13.423198 L 6.856009 13.423198 L 6.856009 11.333334 Z"/>
</svg>
