<svg xmlns="http://www.w3.org/2000/svg" xmlns:xlink="http://www.w3.org/1999/xlink" style="isolation:isolate" width="16" height="16" viewBox="0 0 16 16">
 <defs>
   <style id="current-color-scheme" type="text/css">
   .ColorScheme-Text { color:#5c616c; } .ColorScheme-Highlight { color:#5294e2; }
  </style>
  <linearGradient id="grad1" x1="0%" x2="0%" y1="0%" y2="100%">
   <stop offset="0%" style="stop-color:#f99f5e; stop-opacity:1"/>
   <stop offset="100%" style="stop-color:#f95e6b; stop-opacity:1"/>
  </linearGradient>
 </defs>
   <path style="fill:url(#grad1);" class="ColorScheme-Text" d="M 13.99976 8.000071 L 16 15.999999 L 16 12.000066 L 13.99976 8.000071 Z M 13.99976 8.000071 L 16 0.000001 L 16 3.999907 L 13.99976 8.000071 M 1.999933 8.000071 L 0 0.000001 L 0 3.999907 L 1.999933 8.000071 M 1.999933 8.000071 L 0 15.999999 L 0 12.000066 L 1.999933 8.000071 Z M 8 13.999982 L 0 15.999999 L 3.999866 15.999999 L 8 13.999982 Z M 8 13.999982 L 16 15.999999 L 11.999865 15.999999 L 8 13.999982 M 8 2.000019 L 16 0.000001 L 11.999865 0.000001 L 8 2.000019 Z M 8 2.000019 L 0 0.000001 L 3.999866 0.000001 L 8 2.000019 M 0 15.999999 L 1.999933 8.000071 L 8 13.999982 L 0 15.999999 Z M 16 15.999999 L 8 13.999982 L 13.99976 8.000071 L 16 15.999999 M 16 0.000001 L 13.99976 8.000071 L 8 2.000019 L 16 0.000001 M 0 0.000001 L 8 2.000019 L 1.999933 8.000071 L 0 0.000001 Z M 8 2.000019 L 1.999933 8.000071 L 8 13.999982 L 13.99976 8.000071 L 8 2.000019 Z"/>
</svg>
