<svg xmlns="http://www.w3.org/2000/svg" xmlns:xlink="http://www.w3.org/1999/xlink" style="isolation:isolate" width="16" height="16" viewBox="0 0 16 16">
 <defs>
   <style id="current-color-scheme" type="text/css">
   .ColorScheme-Text { color:#5c616c; } .ColorScheme-Highlight { color:#5294e2; }
  </style>
  <linearGradient id="grad1" x1="0%" x2="0%" y1="0%" y2="100%">
   <stop offset="0%" style="stop-color:#f99f5e; stop-opacity:1"/>
   <stop offset="100%" style="stop-color:#f95e6b; stop-opacity:1"/>
  </linearGradient>
 </defs>
   <path style="fill:url(#grad1);" class="ColorScheme-Text" d="M 5.732515 0 C 5.402811 0.473698 5.135393 2.098211 6.089645 2.901039 C 7.216462 3.862719 7.456453 5.018679 7.456453 6.768331 C 7.456453 9.229956 5.514808 11.200744 6.879331 13.537232 C 3.063466 10.172207 6.908472 5.122103 4.005147 3.076462 C 5.153678 6.152923 1.130964 7.999143 1.142392 10.98475 C 1.13325 14.152639 3.433739 15.998287 6.190784 15.992 C 4.224569 15.13603 3.328029 12.552123 3.432025 11.076747 C 4.814833 14.432056 6.877617 15.999429 10.328922 15.999429 C 8.999827 14.14121 8.782691 13.905789 8.706123 12.723545 C 8.712978 11.632729 9.123822 11.389307 9.842082 10.024213 C 11.649445 6.988322 10.823189 3.92386 8.362706 2.493625 C 7.862153 2.226777 7.727871 2.151924 6.816476 1.770222 C 6.291351 1.507946 5.768513 0.938252 5.731943 0.001143 M 11.896295 5.142102 C 13.719086 7.639727 11.643161 9.667654 10.690624 11.197315 C 9.909508 12.398987 10.66148 14.387487 11.478594 16 C 11.550593 14.637192 12.399133 13.697226 13.085965 13.212101 C 15.189321 11.517302 15.256174 9.301382 14.140785 7.330024 C 13.44024 6.248348 12.820834 5.897503 11.896295 5.142674"/>
</svg>
