<svg xmlns="http://www.w3.org/2000/svg" xmlns:xlink="http://www.w3.org/1999/xlink" style="isolation:isolate" width="16" height="16" viewBox="0 0 16 16">
 <defs>
   <style id="current-color-scheme" type="text/css">
   .ColorScheme-Text { color:#5c616c; } .ColorScheme-Highlight { color:#5294e2; }
  </style>
  <linearGradient id="grad1" x1="0%" x2="0%" y1="0%" y2="100%">
   <stop offset="0%" style="stop-color:#f99f5e; stop-opacity:1"/>
   <stop offset="100%" style="stop-color:#f95e6b; stop-opacity:1"/>
  </linearGradient>
 </defs>
   <path style="fill:url(#grad1);" class="ColorScheme-Text" fill-rule="evenodd" d="M 8.312394 0 L 8.312394 0 Q 11.463497 0 13.120543 1.33107 L 13.120543 1.33107 L 13.120543 1.33107 Q 14.777589 2.662139 14.777589 5.21562 L 14.777589 5.21562 L 14.777589 5.21562 Q 14.777589 7.850594 13.120543 9.208829 L 13.120543 9.208829 L 13.120543 9.208829 Q 11.463497 10.567063 8.312394 10.567063 L 8.312394 10.567063 L 6.655348 10.567063 L 6.655348 13.256367 L 9.398981 13.256367 L 9.398981 16 L 1.222411 16 L 1.222411 13.256367 L 3.504244 13.256367 L 3.504244 2.743633 L 1.222411 2.743633 L 1.222411 0 L 8.312394 0 Z M 8.285229 8.095076 L 8.285229 8.095076 Q 11.490662 8.095076 11.490662 5.297114 L 11.490662 5.297114 L 11.490662 5.297114 Q 11.490662 3.993209 10.702886 3.368421 L 10.702886 3.368421 L 10.702886 3.368421 Q 9.91511 2.743633 8.285229 2.743633 L 8.285229 2.743633 L 6.682513 2.743633 L 6.682513 8.095076 L 8.285229 8.095076 Z"/>
</svg>
