<svg xmlns="http://www.w3.org/2000/svg" xmlns:xlink="http://www.w3.org/1999/xlink" style="isolation:isolate" width="16" height="16" viewBox="0 0 16 16">
   <defs>
   <style id="current-color-scheme" type="text/css">
   .ColorScheme-Text { color:#5c616c; } .ColorScheme-Highlight { color:#5294e2; }
  </style>
  <linearGradient id="grad1" x1="0%" x2="0%" y1="0%" y2="100%">
   <stop offset="0%" style="stop-color:#f99f5e; stop-opacity:1"/>
   <stop offset="100%" style="stop-color:#f95e6b; stop-opacity:1"/>
  </linearGradient>
   </defs>
    <path style="fill:url(#grad1);" class="ColorScheme-Text" d="M 6.250665 16 L 5.909332 1.429333 L 5.909332 1.429333 Q 4.394668 2.005334 3.562665 3.210665 L 3.562665 3.210665 L 3.562665 3.210665 Q 2.730666 4.415999 2.730666 6.165332 L 2.730666 6.165332 L 2.730666 6.165332 Q 2.730666 6.954667 2.879999 7.264001 L 2.879999 7.264001 L 2.879999 7.264001 Q 3.029331 7.573332 3.029331 7.615999 L 3.029331 7.615999 L 3.029331 7.615999 Q 1.877334 7.615999 1.312002 7.135999 L 1.312002 7.135999 L 1.312002 7.135999 Q 0.746665 6.656002 0.746665 5.546667 L 0.746665 5.546667 L 0.746665 5.546667 Q 0.746665 4.181331 1.866665 2.890666 L 1.866665 2.890666 L 1.866665 2.890666 Q 2.986668 1.6 4.736001 0.8 L 4.736001 0.8 L 4.736001 0.8 Q 6.485333 0 8.234666 0 L 8.234666 0 L 8.234666 0 Q 8.533331 0 9.087998 0.042668 L 9.087998 0.042668 L 9.279999 13.162667 L 13.76 0.106665 L 15.253335 0.106665 L 9.322666 16 L 6.250665 16 Z"/>
</svg>
