<svg xmlns="http://www.w3.org/2000/svg" xmlns:xlink="http://www.w3.org/1999/xlink" style="isolation:isolate" width="16" height="16" viewBox="0 0 16 16">
 <defs>
   <style id="current-color-scheme" type="text/css">
   .ColorScheme-Text { color:#5c616c; } .ColorScheme-Highlight { color:#5294e2; }
  </style>
  <linearGradient id="grad1" x1="0%" x2="0%" y1="0%" y2="100%">
   <stop offset="0%" style="stop-color:#f99f5e; stop-opacity:1"/>
   <stop offset="100%" style="stop-color:#f95e6b; stop-opacity:1"/>
  </linearGradient>
 </defs>
   <path style="fill:url(#grad1);" class="ColorScheme-Text" d="M 7.725765 4.185715 L 7.423725 5.350775 L 6.428572 9.176208 L 5.682143 6.685511 L 5.602168 6.430995 L 5.340051 6.430995 L 0 6.430995 L 0 7.127626 L 5.073469 7.145204 L 6.113138 10.600142 L 6.477423 11.814285 L 6.797321 10.586814 L 7.810204 6.698839 L 8.414414 8.524539 L 8.74324 9.515435 L 9.089668 8.529025 L 9.804975 6.475721 L 10.689159 9.18518 L 10.769006 9.430725 L 11.026786 9.430725 L 16 9.427841 L 16 8.697697 L 11.284439 8.716515 L 10.15153 5.252608 L 9.822832 4.252741 L 9.476276 5.248122 L 8.760969 7.301426 L 8.103444 5.328476 L 7.725765 4.185715 Z"/>
</svg>
