<svg xmlns="http://www.w3.org/2000/svg" style="isolation:isolate" width="16" height="16" viewBox="0 0 16 16">
 <defs>
  <style id="current-color-scheme" type="text/css">
   .ColorScheme-Text { color:#5c616c; } .ColorScheme-Highlight { color:#5294e2; }
  </style>
  <linearGradient id="grad1" x1="0%" x2="0%" y1="0%" y2="100%">
   <stop offset="0%" style="stop-color:#f99f5e; stop-opacity:1"/>
   <stop offset="100%" style="stop-color:#f95e6b; stop-opacity:1"/>
  </linearGradient>
  <clipPath id="_clipPath_26K433LcHXak67YnvLxuXQy5ua5yiHn1">
   <rect width="16" height="16"/>
  </clipPath>
 </defs>
 <g clip-path="url(#_clipPath_26K433LcHXak67YnvLxuXQy5ua5yiHn1)">
  <path style="fill:url(#grad1)" class="ColorScheme-Text" fill-rule="evenodd" d="M 6.887 4.875 L 1.031 4.875 L 1.031 4.875 L 1.031 14.531 L 15.031 14.531 L 15.031 4.875 L 8.765 4.875 L 11.88 1.89 L 12.24 1.55 L 11.55 0.82 L 11.19 1.17 L 7.82 4.39 L 5.54 2.09 L 5.19 1.73 L 4.48 2.43 L 4.83 2.79 L 6.887 4.875 Z M 2.03 5.87 L 2.03 13.53 L 14.03 13.53 L 14.03 5.87 L 2.03 5.87 L 2.03 5.87 Z"/>
  <rect style="fill:url(#grad1)" class="ColorScheme-Text" width="4.625" height="3.594" x="17.63" y="-.28" transform="matrix(1,0,0,1,0,0)"/>
 </g>
</svg>
