<svg xmlns="http://www.w3.org/2000/svg" style="isolation:isolate" width="16" height="16" viewBox="0 0 16 16">
 <defs>
  <style id="current-color-scheme" type="text/css">
   .ColorScheme-Text { color:#5c616c; } .ColorScheme-Highlight { color:#5294e2; }
  </style>
  <linearGradient id="grad1" x1="0%" x2="0%" y1="0%" y2="100%">
   <stop offset="0%" style="stop-color:#f99f5e; stop-opacity:1"/>
   <stop offset="100%" style="stop-color:#f95e6b; stop-opacity:1"/>
  </linearGradient>
  <clipPath id="_clipPath_MUx8C6oXelCtPPQ1qsSDrSEqWMrSbBHz">
   <rect width="16" height="16"/>
  </clipPath>
 </defs>
 <g clip-path="url(#_clipPath_MUx8C6oXelCtPPQ1qsSDrSEqWMrSbBHz)">
  <rect style="fill:url(#grad1)" class="ColorScheme-Text" width="4.625" height="3.594" x="17.09" y="-.09" transform="matrix(1,0,0,1,0,0)"/>
  <g>
   <path style="fill:url(#grad1)" class="ColorScheme-Text" d="M 2.321 7.538 L 2.496 7.538 L 2.489 9.518 L 7.681 9.511 L 7.674 7.538 L 8.048 7.544 L 8.035 9.504 L 13.165 9.511 L 13.152 7.538 L 13.38 7.542 C 13.645 7.547 13.934 7.752 14.026 8 L 14.972 10.545 C 15.064 10.793 14.924 10.994 14.659 10.995 L 1.369 11.007 C 1.104 11.008 0.947 10.801 1.017 10.546 L 1.716 7.999 C 1.786 7.745 2.057 7.538 2.321 7.538 Z"/>
   <path d="M 3.207 4.993 L 6.878 4.993 C 7.203 4.993 7.467 5.257 7.467 5.582 L 7.467 8.663 C 7.467 8.988 7.203 9.252 6.878 9.252 L 3.207 9.252 C 2.882 9.252 2.618 8.988 2.618 8.663 L 2.618 5.582 C 2.618 5.257 2.882 4.993 3.207 4.993 Z" style="fill:url(#grad1)" class="ColorScheme-Text"/>
   <path d="M 8.81 4.993 L 12.481 4.993 C 12.806 4.993 13.07 5.257 13.07 5.582 L 13.07 8.663 C 13.07 8.988 12.806 9.252 12.481 9.252 L 8.81 9.252 C 8.485 9.252 8.221 8.988 8.221 8.663 L 8.221 5.582 C 8.221 5.257 8.485 4.993 8.81 4.993 Z" style="fill:url(#grad1)" class="ColorScheme-Text"/>
  </g>
 </g>
</svg>
