<svg xmlns="http://www.w3.org/2000/svg" style="isolation:isolate" width="16" height="16" viewBox="0 0 16 16">
 <defs>
  <style id="current-color-scheme" type="text/css">
   .ColorScheme-Text { color:#5c616c; } .ColorScheme-Highlight { color:#5294e2; }
  </style>
  <linearGradient id="grad1" x1="0%" x2="0%" y1="0%" y2="100%">
   <stop offset="0%" style="stop-color:#f99f5e; stop-opacity:1"/>
   <stop offset="100%" style="stop-color:#f95e6b; stop-opacity:1"/>
  </linearGradient>
  <clipPath id="_clipPath_pQbsaVphfbDtstGCjgGtpgXFps9fDVDH">
   <rect width="16" height="16"/>
  </clipPath>
 </defs>
 <g clip-path="url(#_clipPath_pQbsaVphfbDtstGCjgGtpgXFps9fDVDH)">
  <rect style="fill:url(#grad1)" class="ColorScheme-Text" fill-opacity="0" width="16" height="16"/>
  <path style="fill:url(#grad1)" class="ColorScheme-Text" fill-rule="evenodd" d="M 3.987 0 C 3.115 0 2.39 0.591 2.166 1.391 L 13.913 1.391 L 13.913 0 L 3.987 0 L 3.987 0 L 3.987 0 L 3.987 0 L 3.987 0 L 3.987 0 Z M 2.087 2.435 L 2.087 3.826 L 5.871 3.826 L 13.913 3.826 L 13.913 2.435 L 2.087 2.435 L 2.087 2.435 L 2.087 2.435 L 2.087 2.435 L 2.087 2.435 L 2.087 2.435 Z M 2.087 4.87 L 2.087 6.261 L 5.913 6.261 L 5.913 4.87 L 2.087 4.87 L 2.087 4.87 L 2.087 4.87 L 2.087 4.87 L 2.087 4.87 Z M 2.087 7.304 L 2.087 8.696 L 5.913 8.696 L 5.913 7.304 L 2.087 7.304 L 2.087 7.304 L 2.087 7.304 L 2.087 7.304 Z M 2.087 9.739 L 2.087 11.13 L 5.913 11.13 L 5.913 9.739 L 2.087 9.739 L 2.087 9.739 L 2.087 9.739 Z M 2.087 12.174 L 2.087 13.565 L 13.913 13.565 L 13.913 12.174 L 5.871 12.174 L 2.087 12.174 L 2.087 12.174 Z M 2.166 14.609 C 2.39 15.409 3.115 16 3.987 16 L 13.913 16 L 13.913 14.609 L 2.166 14.609 Z"/>
 </g>
</svg>
