<svg xmlns="http://www.w3.org/2000/svg" style="isolation:isolate" width="16" height="16" viewBox="0 0 16 16">
 <defs>
  <style id="current-color-scheme" type="text/css">
   .ColorScheme-Text { color:#5c616c; } .ColorScheme-Highlight { color:#5294e2; }
  </style>
  <linearGradient id="grad1" x1="0%" x2="0%" y1="0%" y2="100%">
   <stop offset="0%" style="stop-color:#f99f5e; stop-opacity:1"/>
   <stop offset="100%" style="stop-color:#f95e6b; stop-opacity:1"/>
  </linearGradient>
  <clipPath id="_clipPath_do78v96y0tbWV3frvQut4hIJhO5mPHn2">
   <rect width="16" height="16"/>
  </clipPath>
 </defs>
 <g clip-path="url(#_clipPath_do78v96y0tbWV3frvQut4hIJhO5mPHn2)">
  <rect style="fill:url(#grad1)" class="ColorScheme-Text" fill-opacity="0" width="16" height="16"/>
  <path style="fill:url(#grad1)" class="ColorScheme-Text" d="M 1.965 0 L 1.965 9.263 L 0 9.263 L 0 10.947 L 5.614 10.947 L 5.614 14.316 L 0 14.316 L 0 15.2 C 0 15.643 0.357 16 0.8 16 L 12.912 16 L 14.596 16 L 14.596 6.737 L 16 6.737 L 16 5.053 L 12.912 5.053 L 12.912 6.737 L 12.912 14.316 L 7.298 14.316 L 7.298 10.947 L 7.298 9.263 L 3.649 9.263 L 3.649 0 L 1.965 0 Z M 5.614 0 L 5.614 7.298 L 7.298 7.298 L 9.263 7.298 L 9.263 12.4 L 10.947 12.4 L 10.947 3.088 L 16 3.088 L 16 1.404 L 9.263 1.404 L 9.263 3.088 L 9.263 5.614 L 7.298 5.614 L 7.298 0 L 5.614 0 Z"/>
 </g>
</svg>
