<svg xmlns="http://www.w3.org/2000/svg" style="isolation:isolate" width="16" height="16" viewBox="0 0 16 16">
 <defs>
  <style id="current-color-scheme" type="text/css">
   .ColorScheme-Text { color:#5c616c; } .ColorScheme-Highlight { color:#5294e2; }
  </style>
  <linearGradient id="grad1" x1="0%" x2="0%" y1="0%" y2="100%">
   <stop offset="0%" style="stop-color:#f99f5e; stop-opacity:1"/>
   <stop offset="100%" style="stop-color:#f95e6b; stop-opacity:1"/>
  </linearGradient>
  <clipPath id="_clipPath_tVUgBFF3yY0rViz7CnSG9HU81JMvcRng">
   <rect width="16" height="16"/>
  </clipPath>
 </defs>
 <g clip-path="url(#_clipPath_tVUgBFF3yY0rViz7CnSG9HU81JMvcRng)">
  <rect style="fill:url(#grad1)" class="ColorScheme-Text" fill-opacity="0" width="16" height="16"/>
  <path style="fill:url(#grad1)" class="ColorScheme-Text" d="M 8 0 C 3.582 0 0 3.582 0 8 C 0 12.418 3.582 16 8 16 C 12.418 16 16 12.418 16 8 L 16 2 C 16 0.892 15.108 0 14 0 L 8 0 Z M 12.5 2 C 13.328 2 14 2.672 14 3.5 C 14 4.328 13.328 5 12.5 5 C 11.672 5 11 4.328 11 3.5 C 11 2.672 11.672 2 12.5 2 L 12.5 2 Z"/>
 </g>
</svg>
