<svg xmlns="http://www.w3.org/2000/svg" style="isolation:isolate" width="16" height="16" viewBox="0 0 16 16">
 <defs>
  <style id="current-color-scheme" type="text/css">
   .ColorScheme-Text { color:#5c616c; } .ColorScheme-Highlight { color:#5294e2; }
  </style>
  <linearGradient id="grad1" x1="0%" x2="0%" y1="0%" y2="100%">
   <stop offset="0%" style="stop-color:#f99f5e; stop-opacity:1"/>
   <stop offset="100%" style="stop-color:#f95e6b; stop-opacity:1"/>
  </linearGradient>
  <clipPath id="_clipPath_VHW3G36kMV61IaABN7dhwZs1qweasFdK">
   <rect width="16" height="16"/>
  </clipPath>
 </defs>
 <g clip-path="url(#_clipPath_VHW3G36kMV61IaABN7dhwZs1qweasFdK)">
  <rect style="fill:url(#grad1)" class="ColorScheme-Text" fill-opacity="0" width="16" height="16"/>
  <path style="fill:url(#grad1)" class="ColorScheme-Text" fill-rule="evenodd" d="M 2.154 5.912 L 2.154 5.103 L 0 5.103 L 0 13.793 L 2.154 13.793 L 2.154 7.276 L 5.385 7.276 L 5.385 5.103 C 4.248 5.098 3.122 5.377 2.154 5.912 Z M 8.616 4.379 L 8.616 7.276 L 8.616 7.276 L 10.665 7.276 C 11.529 7.276 12.206 6.709 12.206 5.828 C 12.206 4.946 11.529 4.379 10.665 4.379 L 8.616 4.379 L 8.616 4.379 L 8.616 4.379 Z M 10.02 9.448 L 13.293 13.793 L 16 13.793 L 12.6 9.281 C 14.037 8.818 15.079 7.447 15.079 5.828 C 15.079 3.828 13.49 2.207 11.531 2.207 L 8.616 2.207 L 8.616 2.207 L 6.462 2.207 L 6.462 2.207 L 6.462 13.793 L 8.616 13.793 L 8.616 9.448 L 10.02 9.448 L 10.02 9.448 Z"/>
 </g>
</svg>
